/* XPM */
static char *result[] = {
/* columns rows colors chars-per-pixel */
"38 38 232 2 ",
"   c #231618",
".  c #23151A",
"X  c #23151B",
"o  c #26131D",
"O  c #24141D",
"+  c #24161D",
"@  c #26161F",
"#  c #29131D",
"$  c #2A131C",
"%  c #29141E",
"&  c #28171F",
"*  c #27181E",
"=  c #201524",
"-  c #2B1121",
";  c #261923",
":  c #2D1C26",
">  c #2D232C",
",  c #35252D",
"<  c #352A2D",
"1  c #332C32",
"2  c #3F2F37",
"3  c #3F3338",
"4  c #47393E",
"5  c #2F384B",
"6  c #313243",
"7  c #303343",
"8  c #323242",
"9  c #303345",
"0  c #363A49",
"q  c #4B3F43",
"w  c #364050",
"e  c #394355",
"r  c #3C475B",
"t  c #3D4F64",
"y  c #3D5065",
"u  c #3E5065",
"i  c #3F566C",
"p  c #4F4046",
"a  c #4E4647",
"s  c #4D444A",
"d  c #504047",
"f  c #504247",
"g  c #514548",
"h  c #554C4E",
"j  c #57577C",
"k  c #57577D",
"l  c #58577D",
"z  c #58567E",
"x  c #55587B",
"c  c #56587B",
"v  c #57597B",
"b  c #575A7A",
"n  c #55587C",
"m  c #57587D",
"M  c #685C61",
"N  c #6A5E63",
"B  c #576C7F",
"V  c #6A6067",
"C  c #6B6168",
"Z  c #71676C",
"A  c #7C7175",
"S  c #787278",
"D  c #7E767B",
"F  c #82777B",
"G  c #817B7C",
"H  c #565F83",
"J  c #595F83",
"K  c #476580",
"L  c #476983",
"P  c #496E8A",
"I  c #4B6E8A",
"U  c #56668A",
"Y  c #4E7999",
"T  c #597294",
"R  c #587395",
"E  c #5C7196",
"W  c #5C7197",
"Q  c #59769D",
"!  c #517D9D",
"~  c #5B789D",
"^  c #5B7A9D",
"/  c #626283",
"(  c #636585",
")  c #626E81",
"_  c #666F8F",
"`  c #6D728F",
"'  c #6F728E",
"]  c #757994",
"[  c #777894",
"{  c #777995",
"}  c #5A79A0",
"|  c #877F84",
" . c #5B819C",
".. c #558CAF",
"X. c #558DAF",
"o. c #568DB0",
"O. c #578CB2",
"+. c #5F89B1",
"@. c #5C8AB0",
"#. c #5D8AB0",
"$. c #5C8EB3",
"%. c #5592B3",
"&. c #5E90B7",
"*. c #5B91B9",
"=. c #6099BD",
"-. c #77A1B9",
";. c #74A2BE",
":. c #619EC2",
">. c #609EC5",
",. c #609EC7",
"<. c #619EC7",
"1. c #5FA1CB",
"2. c #5EA4CC",
"3. c #5FA5CD",
"4. c #64A3C7",
"5. c #63A8CF",
"6. c #7CA6C0",
"7. c #61A9D2",
"8. c #61ABD2",
"9. c #61ABD3",
"0. c #62ABD3",
"q. c #64AAD2",
"w. c #63ACD3",
"e. c #61ABD4",
"r. c #62ABD4",
"t. c #63ABD4",
"y. c #62ABD5",
"u. c #63ABD5",
"i. c #62ABD6",
"p. c #64ABD5",
"a. c #65ABD5",
"s. c #65AAD6",
"d. c #64ABD6",
"f. c #61ACD4",
"g. c #60ADD5",
"h. c #62ACD4",
"j. c #62ACD6",
"k. c #63ACD6",
"l. c #65ADD5",
"z. c #68AED6",
"x. c #66AFD9",
"c. c #67B1D6",
"v. c #6EB2D7",
"b. c #6AB1D8",
"n. c #6FB4DA",
"m. c #6EB9DA",
"M. c #6EB9DE",
"N. c #70B2D6",
"B. c #73B5D9",
"V. c #79BADA",
"C. c #7FBCDC",
"Z. c #74BFE5",
"A. c #77C7E4",
"S. c #7CCAE3",
"D. c #7AC9E4",
"F. c #9C9799",
"G. c #9A9AB0",
"H. c #9C9EB1",
"J. c #A79CA0",
"K. c #8AA4B6",
"L. c #82A0BC",
"P. c #88A6B9",
"I. c #90A6B5",
"U. c #A8A1A2",
"Y. c #ABADBE",
"T. c #97B8CA",
"R. c #81BBDC",
"E. c #81BBDD",
"W. c #81BCDC",
"Q. c #87BFDD",
"!. c #88BEDE",
"~. c #99BFD4",
"^. c #ADBBC2",
"/. c #A8B6CA",
"(. c #B1B2C1",
"). c #BBBCCA",
"_. c #95C1DA",
"`. c #9BC9DC",
"'. c #B2CCDC",
"]. c #93C5E0",
"[. c #99C9E1",
"{. c #9AC9E3",
"}. c #86D7EE",
"|. c #A2D1E8",
" X c #BFDCEB",
".X c #BEDDEB",
"XX c #BDDCED",
"oX c #BFDDEC",
"OX c #99F0FB",
"+X c #9BF0FC",
"@X c #9BF0FD",
"#X c #9BF1FD",
"$X c #9CF0FC",
"%X c #9DF0FC",
"&X c #9CF0FD",
"*X c #9DF0FD",
"=X c #9EF0FD",
"-X c #A1F0FD",
";X c #B7F2FC",
":X c #B8F2FA",
">X c #C3C4CC",
",X c #C9C6C9",
"<X c #CFCECE",
"1X c #D0CBCB",
"2X c #CDCED7",
"3X c #DDDBDD",
"4X c #C0DCED",
"5X c #D8E8F1",
"6X c #CFF8FB",
"7X c #E2E0E0",
"8X c #E8E5E6",
"9X c #EBF1F1",
"0X c #E9F3F7",
"qX c #ECF4F6",
"wX c #EFF6F8",
"eX c #EFF7F8",
"rX c #EFF6F9",
"tX c #E2F8FA",
"yX c #EFFBFA",
"uX c #F3F2F2",
"iX c #F1F7F7",
"pX c #F4F9FA",
"aX c #F7FAFB",
"sX c #F7FDFC",
"dX c #F9FBF8",
"fX c #FBFAFA",
"gX c #FBFBFA",
"hX c #FCFDF9",
"jX c #FFFEFD",
"kX c #FDFEFE",
"lX c white",
"zX c None",
/* pixels */
"zXzXzXzXzXzXzXzXzXzXzXzXzXzXzXzXzXzXzXzXzXzXzXzXzXzXzXzXzXzXzXzXzXzXzXzXzXzX",
"zXzXzXzXzXzXzXzXzXzXzXzXzXzXzXzXzXzXzXzXzXzXzXzXzXzXzXzXzXzXzXzXzXzXzXzXzXzX",
"zXzXzXzXzXzXzXzXzXzXzXzXzXzXzXzXzXzXzXzXzXzXzXzXzXzXzXzXzXzXzXzXzXzXzXzXzXzX",
"zXzXzXzXzXzXzXzXzXzXzXzXzXzXzXzXzXzXzXzXzXzXzXzXzXzXzXzXzXzXzXzXzXzXzXzXzXzX",
"zXzXzXzXzXzXzXzXzXzXzXzXzXzXzXzXzXzXzXzXzXzXzXzXzXzXzXzXzXzXzXzXzXzXzXzXzXzX",
"zXzXzXzXzXzXzXzXzXzXzXzXzXzXzXzXzXzXzXzXzXzXzXzXzXzXzXzXzXzXzXzXzXzXzXzXzXzX",
"zXzXzXzXzXzXzXzXzXzXzXzXzXzXzXzXzXzXzXzXzXzXzXzXzXzXzXzXzXzXzXzXzXzXzXzXzXzX",
"zXzXzXzXzXzXzXzXzXzXzXzXzXzXzXzXzXzXzXzXzXzXzXzXzXzXzXzXzXzXzXzXzXzXzXzXzXzX",
"zXzXzXzXzXzXzXzXzXzXzXzXzXzXzXzXzXzXzXzXzXzXzXzXzXzXzXzXzXzXzXzXzXzXzXzXzXzX",
"zXzXzXzXzXzXzXzXzXzXzXzXzXzXzXzXzXzXzXzXzXzXzXzXzXzXzXzXzXzXzXzXzXzXzXzXzXzX",
"zXzXzXzXzXzXzXzXzXzXzXzXzXzXzXzXzXzXzXC < zXzXzXzXzXzXzXzXzXzXzXzXzXzXzXzXzX",
"zXzXzXzXzXzXzXzXzXzXzXzXzX. zXzXzX  G <Xa $ zXzXzX+ zXzXzXzXzXzXzXzXzXzXzXzX",
"zXzXzXzXzXzXzXzXzXzXzXzXzX3 | X r P 6._. .K o O V h zXzXzXzXzXzXzXzXzXzXzXzX",
"zXzXzXzXzXzXzXzXzXzXzXzX; s 3X^.=.7.i.u.t.3...P.7XS zXzXzXzXzXzXzXzXzXzXzXzX",
"zXzXzXzXzXzXzXzXzXzXzX# Y -.9XiX/.*.i.r.r.r.V.0XhXT.w zXzXzXzXzXzXzXzXzXzXzX",
"zXzXzXzXzXzXzXzXzXzX= %.4.H ] aXXXr.r.r.r.r.E.sX6XOXZ.5 zXzXzXzXzXzXzXzXzXzX",
"zXzXzXzXzXzXzXzXzX* I ,.U v b W w.u.y.r.r.r.M.-X=X#XS.:.> zXzXzXzXzXzXzXzXzX",
"zXzXzXzXzXzXzXzX4 A I._ x x x R e.p.!.[.N.r.m.@X&X+X%X`.D N @ zXzXzXzXzXzXzX",
"zXzXzXzXzXzXzXzXM 1XdXY.( x x R 9.e. XqXR.r.m.@X&X$X;XyXuXF.zXzXzXzXzXzXzXzX",
"zXzXzXzXzXzXzXzXzX) 5XkX[ n x R r.g.oXwXR.r.m.@X&X&XtXpX~.1 zXzXzXzXzXzXzXzX",
"zXzXzXzXzXzXzXzXe O.L.G.( x x R r.f.Q.{.v.r.c.}.&X&X:X|.5.L zXzXzXzXzXzXzXzX",
"zXzXzXzXzXzXzXzXy s.~ k x x x R r.r.r.r.r.r.r.A.*X&XD.x.r.o.% zXzXzXzXzXzXzX",
"zXzXzXzXzXzXzXzXt s.~ k x x x T q.r.r.r.r.r.r.r.r.r.r.r.r.X.- zXzXzXzXzXzXzX",
"zXzXzXzXzX: q f B d.~ l ' { { ` } e.r.r.r.r.z.W.R.v.r.r.l.;.g d , zXzXzXzXzX",
"zXzXzXzXzX2 ,XgX.Xj.~ z >XfXlX2XE 2.i.r.r.r.C.jXeX].r.h.n.rXlX8XZ zXzXzXzXzX",
"zXzXzXzXzXzXp J.K.k.^ j / (.).H.m Q <.r.r.r.B.4X[.r.r.r.b.'.U.F zXzXzXzXzXzX",
"zXzXzXzXzXzXzX@ u a.$.J x x x x x c +.r.r.r.r.r.r.r.r.r.r.X.& zXzXzXzXzXzXzX",
"zXzXzXzXzXzXzXzX0 ! 8.&.@.@.@.@.@.#.>.9.9.9.9.9.9.9.9.0.1.i zXzXzXzXzXzXzXzX",
"zXzXzXzXzXzXzXzXzX7 6 8 8 8 8 8 8 8 8 8 8 8 8 8 8 8 8 6 9 zXzXzXzXzXzXzXzXzX",
"zXzXzXzXzXzXzXzXzXzXzXzXzXzXzXzXzXzXzXzXzXzXzXzXzXzXzXzXzXzXzXzXzXzXzXzXzXzX",
"zXzXzXzXzXzXzXzXzXzXzXzXzXzXzXzXzXzXzXzXzXzXzXzXzXzXzXzXzXzXzXzXzXzXzXzXzXzX",
"zXzXzXzXzXzXzXzXzXzXzXzXzXzXzXzXzXzXzXzXzXzXzXzXzXzXzXzXzXzXzXzXzXzXzXzXzXzX",
"zXzXzXzXzXzXzXzXzXzXzXzXzXzXzXzXzXzXzXzXzXzXzXzXzXzXzXzXzXzXzXzXzXzXzXzXzXzX",
"zXzXzXzXzXzXzXzXzXzXzXzXzXzXzXzXzXzXzXzXzXzXzXzXzXzXzXzXzXzXzXzXzXzXzXzXzXzX",
"zXzXzXzXzXzXzXzXzXzXzXzXzXzXzXzXzXzXzXzXzXzXzXzXzXzXzXzXzXzXzXzXzXzXzXzXzXzX",
"zXzXzXzXzXzXzXzXzXzXzXzXzXzXzXzXzXzXzXzXzXzXzXzXzXzXzXzXzXzXzXzXzXzXzXzXzXzX",
"zXzXzXzXzXzXzXzXzXzXzXzXzXzXzXzXzXzXzXzXzXzXzXzXzXzXzXzXzXzXzXzXzXzXzXzXzXzX",
"zXzXzXzXzXzXzXzXzXzXzXzXzXzXzXzXzXzXzXzXzXzXzXzXzXzXzXzXzXzXzXzXzXzXzXzXzXzX"
};
