/* XPM */
static char *result[] = {
/* columns rows colors chars-per-pixel */
"25 25 203 2 ",
"   c #060603",
".  c #060604",
"X  c #080705",
"o  c #0A0901",
"O  c #0D0B00",
"+  c #0D0B02",
"@  c #0A0905",
"#  c #0C0B06",
"$  c #131000",
"%  c #131102",
"&  c #141203",
"*  c #181500",
"=  c #1A1600",
"-  c #13120A",
";  c #15140F",
":  c #181508",
">  c #18170D",
",  c #1D1B13",
"<  c #1E1C17",
"1  c #3E3600",
"2  c #212119",
"3  c #28261C",
"4  c #302D18",
"5  c #3D3817",
"6  c gray13",
"7  c #232323",
"8  c #2C2C2C",
"9  c #5C4F00",
"0  c #51480F",
"q  c #5D5108",
"w  c #4F471A",
"e  c #5C5218",
"r  c #665B19",
"t  c #7E6F11",
"y  c #7E6F12",
"u  c #43402C",
"i  c #5F592E",
"p  c #464533",
"a  c #5E5831",
"s  c #786E2C",
"d  c #7E7224",
"f  c #6B6433",
"g  c #686238",
"h  c #7B733C",
"j  c #444444",
"k  c #484846",
"l  c #4B4B4B",
"z  c #4E4E4A",
"x  c #585647",
"c  c gray37",
"v  c #646464",
"b  c gray42",
"n  c #737269",
"m  c #73726E",
"M  c #927E02",
"N  c #8D7C13",
"B  c #81741C",
"V  c #AB9716",
"C  c #AC9816",
"Z  c #B9A318",
"A  c #BCA618",
"S  c #C5AB02",
"D  c #C0A809",
"F  c #D3B707",
"G  c #D5B900",
"H  c #D6B901",
"J  c #D8BB02",
"K  c #CFB71B",
"L  c #CFB71D",
"P  c #D2B91C",
"I  c #D8BE1C",
"U  c #E7C800",
"Y  c #E8C901",
"T  c #EECE02",
"R  c #EECE03",
"E  c #EFCF04",
"W  c #F0D005",
"Q  c #F1D106",
"!  c #F5D505",
"~  c #F5D506",
"^  c #F9D802",
"/  c #FCDA02",
"(  c #FCDB02",
")  c #FCDB03",
"_  c #F2D208",
"`  c #F2D209",
"'  c #F2D309",
"]  c #F3D30A",
"[  c #F3D30B",
"{  c #F6D609",
"}  c #F5D70F",
"|  c #F8D808",
" . c #F9D909",
".. c #F8D80A",
"X. c #F9D90B",
"o. c #FADA0A",
"O. c #FADA0C",
"+. c #F9D90F",
"@. c #EACF1E",
"#. c #EDD11C",
"$. c #F7D812",
"%. c #F7D813",
"&. c #F9DA10",
"*. c #F9DA11",
"=. c #FEDE12",
"-. c #F8D914",
";. c #F9DB16",
":. c #F9DB17",
">. c #FADB17",
",. c #FEDE15",
"<. c #FEDF15",
"1. c #FEDF16",
"2. c #F8DA18",
"3. c #FADB18",
"4. c #FADC19",
"5. c #FBDC19",
"6. c #FBDC1A",
"7. c #FBDD1A",
"8. c #FBDD1B",
"9. c #FADD1E",
"0. c #FCDE1C",
"q. c #FDDF1C",
"w. c #FDDF1D",
"e. c #FEDF1C",
"r. c #FEDF1D",
"t. c #FDDF1F",
"y. c #FEE019",
"u. c #FEE01B",
"i. c #FFE01C",
"p. c #FFE01E",
"a. c #FEE01F",
"s. c #F6D920",
"d. c #F9DC20",
"f. c #FCDE21",
"g. c #F8DC26",
"h. c #F9DD2F",
"j. c #EBD236",
"k. c #FEE020",
"l. c #FFE020",
"z. c #FFE120",
"x. c #FEE021",
"c. c #FFE121",
"v. c #FFE122",
"b. c #FFE123",
"n. c #FFE226",
"m. c #FFE228",
"M. c #FFE229",
"N. c #FCE02B",
"B. c #FFE22A",
"V. c #FCE02D",
"C. c #FFE22C",
"Z. c #FFE331",
"A. c #FFE333",
"S. c #FFE436",
"D. c #FAE03A",
"F. c #FAE13D",
"G. c #FCE23C",
"H. c #FDE33E",
"J. c #FFE43D",
"K. c #FFE53E",
"L. c #928847",
"P. c #AA9F56",
"I. c #ACA156",
"U. c #B3A759",
"Y. c #80807A",
"T. c #C2B560",
"R. c #CCBE66",
"E. c #E6D355",
"W. c #E9D559",
"Q. c #FFE540",
"!. c #FDE442",
"~. c #FFE542",
"^. c #FDE447",
"/. c #FFE646",
"(. c #FFE649",
"). c #FFE64A",
"_. c #FEE64E",
"`. c #FFE750",
"'. c #FEE752",
"]. c #FFE850",
"[. c #FFE852",
"{. c #FFE853",
"}. c #FFE855",
"|. c #FFE856",
" X c #FEE857",
".X c #FFE858",
"XX c #FFEA5F",
"oX c #CFC167",
"OX c #DECE6B",
"+X c #F6E361",
"@X c #FEE963",
"#X c #FFEA63",
"$X c #FFEA64",
"%X c #FFEB69",
"&X c #FEEB6C",
"*X c #FFEB6C",
"=X c #FDEA70",
"-X c #FFED77",
";X c #FFED79",
":X c #FFED7B",
">X c #FCEB7D",
",X c #FFED7C",
"<X c None",
/* pixels */
"<X<X<X<X<X<X<X<X<X<X<X<X<X<X<X<X<X<X<X<X<X<X<X<X<X",
"<X<X<X<X<X<X<X<X<X<X<X<X<X<X<X<X<X<X<X<X<X<X<X<X<X",
"<X<X<X<X<X<X<X<X<Xx 4 4 4 4 4 u <X<X<X<X<X<X<X<X<X",
"<X<X<X<X<X<X<X; @ L.,X:X:X:X:XOX: o m <X<X<X<X<X<X",
"<X<X<X<X<X<X< R.oXW.^.A.A.A.A.h.P K d l <X<X<X<X<X",
"<X<X<X<X<X<Xh +X.XD.s.%.$.$.$.-.l.c.Z s v <X<X<X<X",
"<X<X<X<Xp f =XH.f.} Q Q Q Q Q ` 7.a.c.K 5 <X<X<X<X",
"<X<X<X. P.&XG.t._ -.b.B.B.B.n.w.W ;.a.c.@.% <X<X<X",
"<X<X<XX I.$Xx.E 7.c.S.-X;X;X{.c.a.] $.c.@.& k <X<X",
"<X<X, U.E.F.[ :.a./. XV.N.N.9.&.l.7.H.}.d.A e 6 <X",
"<X<X- >X_.g.T a.c.}.@XO.o.o.| { a.c.].%Xz.1.q 7 <X",
"<X<X- >XQ.3.T a.c.}.@XO.o.o.| { a.c.].%Xp.) 9 7 <X",
"<X<X- >XQ.>.T a.c.}.@XO.o.o.| { a.c.].%Xp.( 9 7 <X",
"<X<X- >XQ.>.T a.c.}.@XO.o.o.| { a.c.].%Xp.( 9 7 <X",
"<X<X- >XQ.>.T a.c.}.@XO.o.o.| { a.c.].%Xp.( 9 7 <X",
"<X<X2 T.j.5.` 4.k.(.'.X. . ...+.l.Z.].|.:.S r 8 <X",
"<X<X<X# C t.a.R 8.v.q.~ ! ! *.z.v.#X`.u.Y * z <X<X",
"<X<X<X  V c.c.0.' -.l.r.q.q.a.C.*X~.M.y.U $ <X<X<X",
"<X<X<X<Xi t x.c.6.!.$X$X$X$X$XXXK.m.<.F 0 <X<X<X<X",
"<X<X<X<X<Xg N d.c.J.[.[.[.[.[.).,.=.D B c <X<X<X<X",
"<X<X<X<X<X<X3 L I #.i.i.i.i.e.2.J G y j <X<X<X<X<X",
"<X<X<X<X<X<X<X> + M / / / / ^ H = O n <X<X<X<X<X<X",
"<X<X<X<X<X<X<X<X<Xa 1 1 1 1 1 w Y.<X<X<X<X<X<X<X<X",
"<X<X<X<X<X<X<X<X<X<Xb b b b b <X<X<X<X<X<X<X<X<X<X",
"<X<X<X<X<X<X<X<X<X<X<X<X<X<X<X<X<X<X<X<X<X<X<X<X<X"
};
