/* XPM */
static char *result[] = {
/* columns rows colors chars-per-pixel */
"25 25 146 2 ",
"   c #0C0B04",
".  c #0C0B07",
"X  c gray5",
"o  c #1A1701",
"O  c #111111",
"+  c gray8",
"@  c gray12",
"#  c #221E04",
"$  c #3D3501",
"%  c #3D3502",
"&  c #3F3707",
"*  c #3B350B",
"=  c #252213",
"-  c #312E16",
";  c #312E18",
":  c #353013",
">  c #36331B",
",  c #37331B",
"<  c gray13",
"1  c #222222",
"2  c #232323",
"3  c #252525",
"4  c gray16",
"5  c #2C2C2C",
"6  c gray18",
"7  c #3E3B2A",
"8  c #403F38",
"9  c #4C440A",
"0  c #4B4415",
"q  c #59511B",
"w  c #474223",
"e  c #484325",
"r  c #464228",
"t  c #4E492C",
"y  c #7C7337",
"u  c #7C7439",
"i  c #6F6A42",
"p  c #787140",
"a  c #6A6A65",
"s  c #686868",
"d  c #6A6A6A",
"f  c gray42",
"g  c #797974",
"h  c #7D7B74",
"j  c #857403",
"k  c #8B7A11",
"l  c #8A7A12",
"z  c #857618",
"x  c #978405",
"c  c #968412",
"v  c #9C8A14",
"b  c #A59008",
"n  c #B19D1F",
"m  c #C0A707",
"M  c #C8AD04",
"N  c #C9AE04",
"B  c #D2B706",
"V  c #D9BD06",
"C  c #D2B91B",
"Z  c #DCC110",
"A  c #EECE01",
"S  c #EECE02",
"D  c #EFCF04",
"F  c #EECF08",
"G  c #EFD004",
"H  c #EED00E",
"J  c #F1D107",
"K  c #F5D505",
"L  c #F6D606",
"P  c #F6D607",
"I  c #F7D707",
"U  c #F1D208",
"Y  c #F3D30A",
"T  c #F7D708",
"R  c #F4D50C",
"E  c #F5D60F",
"W  c #F8D80B",
"Q  c #FADA0A",
"!  c #F8D80D",
"~  c #FADB0D",
"^  c #F8D90F",
"/  c #E5C810",
"(  c #E1C71D",
")  c #EFD21B",
"_  c #EFD31F",
"`  c #F6D710",
"'  c #F6D711",
"]  c #F7D711",
"[  c #F7D712",
"{  c #F4D614",
"}  c #F9DA10",
"|  c #F9DA11",
" . c #FADB11",
".. c #F8D913",
"X. c #FADB13",
"o. c #F8D914",
"O. c #F9DA14",
"+. c #FADB14",
"@. c #F9DB17",
"#. c #FBDC14",
"$. c #F0D318",
"%. c #F1D41D",
"&. c #F2D51C",
"*. c #F6D91C",
"=. c #F8D918",
"-. c #FADB18",
";. c #F8DA1A",
":. c #F8DA1B",
">. c #FBDC1A",
",. c #FBDD1A",
"<. c #FBDD1B",
"1. c #FCDD19",
"2. c #FCDE1C",
"3. c #FDDF1D",
"4. c #FEE01E",
"5. c #FEE01F",
"6. c #F9DC20",
"7. c #F6DB29",
"8. c #E1CA3E",
"9. c #FEE020",
"0. c #FFE020",
"q. c #FFE121",
"w. c #FFE125",
"e. c #FDE027",
"r. c #FFE227",
"t. c #FFE433",
"y. c #FFE53B",
"u. c #FEE53F",
"i. c #908645",
"p. c #BAAE5F",
"a. c #D9C543",
"s. c #FFE74E",
"d. c #FFE852",
"f. c #FFE856",
"g. c #EFDE6C",
"h. c #EFDE72",
"j. c #EFDF77",
"k. c #FEE962",
"l. c #FEE964",
"z. c #FEE965",
"x. c #FEEC71",
"c. c #FEEC73",
"v. c #FAE978",
"b. c #FCEB79",
"n. c #FEED7A",
"m. c None",
/* pixels */
"m.m.m.m.m.m.m.m.m.m.m.m.m.m.m.m.m.m.m.m.m.m.m.m.m.",
"m.m.m.m.m.m.m.m.m.m.m.m.m.m.m.m.m.m.m.m.m.m.m.m.m.",
"m.m.m.m.m.m.m.m.m.m.; > , , : * m.m.m.m.m.m.m.m.m.",
"m.m.m.m.m.m.m.m.m.i.n.n.n.n.f.( # m.m.m.m.m.m.m.m.",
"m.m.m.m.m.m.m.X p.8.$.$.$.$.*.6.C 9 m.m.m.m.m.m.m.",
"m.m.m.m.m.m.m.p a.7.E E E E ` o.0.v u m.m.m.m.m.m.",
"m.m.m.m.m.m.. j.%.] w.t.t.r.o.D 5.q.l 6 m.m.m.m.m.",
"m.m.m.m.m.m.= g.&.=.y.x.c.u.o.J 2.9.c 7 m.m.m.m.m.",
"m.m.m.m.5 t h.H >.s.k.+. .W | 2.D -.{ m @ m.m.m.m.",
"m.m.m.m.2 w b.F ,.d.z.~ Q I } 3.S @.+.N O m.m.m.m.",
"m.m.m.m.2 w b.F ,.d.z.~ Q I } 3.S @.+.N O m.m.m.m.",
"m.m.m.m.1 w b.F ,.d.z.~ Q I } 3.S @.+.N O m.m.m.m.",
"m.m.m.m.< w b.F ,.d.z.~ Q I } 3.S @.+.N O m.m.m.m.",
"m.m.m.m.< w b.F ,.d.z.~ Q I } 3.S @.+.N O m.m.m.m.",
"m.m.m.m.2 w b.F ,.d.z.~ Q I } 3.S @.+.N O m.m.m.m.",
"m.m.m.m.3 w b.F ,.d.z.~ Q I } 3.S @.+.N O m.m.m.m.",
"m.m.m.m.4 e v.F ,.d.l.~ Q T } 3.S @.O.M + m.m.m.m.",
"m.m.m.m.m.h - ) Y :.e.P L #...U <.^ x r m.m.m.m.m.",
"m.m.m.m.m.m.  _ J ] 5.1.1.4.o.D 5.! j 6 m.m.m.m.m.",
"m.m.m.m.m.m.g z Z ' [ [ [ [ ' ' X.b y d m.m.m.m.m.",
"m.m.m.m.m.m.m.5 n / G A A A R ;.B q s m.m.m.m.m.m.",
"m.m.m.m.m.m.m.m.8 k 1.K K K K V o a m.m.m.m.m.m.m.",
"m.m.m.m.m.m.m.m.m.i & % $ $ $ 0 m.m.m.m.m.m.m.m.m.",
"m.m.m.m.m.m.m.m.m.m.m.m.f f f m.m.m.m.m.m.m.m.m.m.",
"m.m.m.m.m.m.m.m.m.m.m.m.m.m.m.m.m.m.m.m.m.m.m.m.m."
};
