/* XPM */
static char *result[] = {
/* columns rows colors chars-per-pixel */
"25 25 85 1 ",
"  c black",
". c #020202",
"X c #040404",
"o c #060606",
"O c #0A0A06",
"+ c #0B0A06",
"@ c gray3",
"# c gray4",
"$ c gray5",
"% c #151515",
"& c gray12",
"* c #362F00",
"= c #302A06",
"- c #302B06",
"; c #3B3300",
": c #393207",
"> c #3D3505",
", c #3F3808",
"< c #222222",
"1 c gray16",
"2 c gray17",
"3 c gray20",
"4 c #413900",
"5 c #463E09",
"6 c #483F09",
"7 c #49410A",
"8 c #5B4F00",
"9 c #5C5000",
"0 c #605408",
"q c #62570D",
"w c #766812",
"e c #736C3A",
"r c gray42",
"t c #6C6C6C",
"y c #7C7967",
"u c #887814",
"i c #958100",
"p c #918013",
"a c #EDCD00",
"s c #EECE06",
"d c #EECF0B",
"f c #F3D30A",
"g c #F4D50C",
"h c #F5D710",
"j c #F6D610",
"k c #F6D812",
"l c #F7D812",
"z c #F7D917",
"x c #F8DA16",
"c c #FBDC1A",
"v c #FBDC1B",
"b c #F9DB1F",
"n c #FADC20",
"m c #FBDD20",
"M c #FBDF2D",
"N c #F9DE31",
"B c #FEE020",
"V c #FFE020",
"C c #FFE121",
"Z c #FFE125",
"A c #FFE226",
"S c #FFE22A",
"D c #888575",
"F c #F5DC43",
"G c #F4DD49",
"H c #F6DF52",
"J c #F6DF55",
"K c #F7E055",
"L c #F9E151",
"P c #FFE75A",
"I c #FBE55F",
"U c #FFE85C",
"Y c #FFE85D",
"T c #FBE566",
"R c #FFE861",
"E c #FFEA6B",
"W c #FBE779",
"Q c #FFEC7B",
"! c #FFEE90",
"~ c #FFEE95",
"^ c #FEEE9D",
"/ c #FFEF9F",
"( c #FFF0A0",
") c #FFF0A3",
"_ c None",
/* pixels */
"_________________________",
"_________________________",
"__________7---5__________",
"_________OCBVCC6_________",
"_________+CgkCC:_________",
"________DwljNPZp_________",
"_______$=naME(SCq________",
"_______#=naW)(SCq________",
"_______.=namR(SCq&_______",
"_______#=naT~(SCq%_______",
"_______o=naI!/bx0<_______",
"_______$=navY^da81_______",
"_______@=nacU^da82_______",
"_______X=nacU^da83_______",
"_______.=nafL^da81_______",
"_______.=naaG^da8<_______",
"_______.=naaG^da8________",
"_______.=naaG^da8________",
"_______ =naaG^da9________",
"________yuhFJHsie________",
"_________+CQKaa*_________",
"_________+CAzaa4_________",
"__________,,>;;__________",
"__________tr_____________",
"_________________________"
};
