/* XPM */
static char *result[] = {
/* columns rows colors chars-per-pixel */
"25 25 21 1 ",
"  c black",
". c #090801",
"X c #0B0A00",
"o c #181503",
"O c #1D1900",
"+ c #2D2700",
"@ c #2F2906",
"# c #302A06",
"$ c #302B06",
"% c #393100",
"& c #3B3300",
"* c #736400",
"= c #7C6E0F",
"- c #7C6E10",
"; c #E4C500",
": c #EDCD00",
"> c #F5D81F",
", c #F5D920",
"< c #FFE020",
"1 c #FFE121",
"2 c None",
/* pixels */
"2222222222222222222222222",
"2222222222222222222222222",
"2222222222.@$o 2222222222",
"2222222222$,1- 2222222222",
"2222222222$,1- 2222222222",
"2222222222$,1- 2222222222",
"2222222222$,1- 2222222222",
"2222222222$,1- 2222222222",
"2222222222$,1- 2222222222",
"2222222222$,1- 2222222222",
"2222222222$,1- 2222222222",
"2222222222#><= 2222222222",
"2222222222+;:* 2222222222",
"2222222222+;:* 2222222222",
"2222222222+;:* 2222222222",
"2222222222+;:* 2222222222",
"2222222222+;:* 2222222222",
"2222222222+;:* 2222222222",
"2222222222+;:* 2222222222",
"2222222222+;:* 2222222222",
"2222222222+;:* 2222222222",
"2222222222+;:* 2222222222",
"2222222222X%&O 2222222222",
"2222222222    22222222222",
"2222222222222222222222222"
};
