/* XPM */
static char *result[] = {
/* columns rows colors chars-per-pixel */
"25 25 69 1 ",
"  c black",
". c #090800",
"X c #0A0800",
"o c #0A0901",
"O c #090902",
"+ c #292405",
"@ c #2C2606",
"# c #332D00",
"$ c #302B06",
"% c #312C07",
"& c #3B3300",
"* c #3F3708",
"= c #3F3808",
"- c #685B0D",
"; c #6C5F0E",
": c #746500",
"> c #776A0F",
", c #7C6D10",
"< c #988300",
"1 c #A39015",
"2 c #B29D11",
"3 c #BCA511",
"4 c #C4AA00",
"5 c #D2B600",
"6 c #CCB41B",
"7 c #D1B81B",
"8 c #DCC113",
"9 c #EDCD00",
"0 c #EECF0C",
"q c #EFD00D",
"w c #F0D006",
"e c #F1D108",
"r c #F1D208",
"t c #F1D20A",
"y c #F1D20E",
"u c #E2C81D",
"i c #F6D711",
"p c #F6D714",
"a c #F7D811",
"s c #F8DA16",
"d c #F0D21A",
"f c #F1D41D",
"g c #F1D41F",
"h c #F5D91F",
"j c #FBDD1B",
"k c #F1D525",
"l c #FBDE23",
"z c #F2D832",
"x c #F3D832",
"c c #FEE020",
"v c #FFE121",
"b c #FFE123",
"n c #FEE125",
"m c #FFE22A",
"M c #FFE22B",
"N c #FFE333",
"B c #FFE43C",
"V c #F6DF52",
"C c #FAE141",
"Z c #FFE543",
"A c #FFE649",
"S c #F6E058",
"D c #FFE85E",
"F c #FFEC7E",
"G c #FFED87",
"H c #FEEC8C",
"J c #FFEF9E",
"K c #FFF1A9",
"L c None",
/* pixels */
"LLLLLLLLLLLLLLLLLLLLLLLLL",
"LLLLLLLLLLLLLLLLLLLLLLLLL",
"LLLLLLLLL@$$$$+LLLLLLLLLL",
"LLLLLLLL 1vvcv, LLLLLLLLL",
"LLLLLLLL 1vvrj, LLLLLLLLL",
"LLLLLLLL;6NDpa2-LLLLLLLLL",
"LLLLLLLouvAKZyi7oLLLLLLLL",
"LLLLLLLouvAKJki7oLLLLLLLL",
"LLLLLLLouvAKNti7oLLLLLLLL",
"LLLLLLLouvAKGgi7oLLLLLLLL",
"LLLLLLLo8sCKFfi7oLLLLLLLL",
"LLLLLLLX59xKMri7oLLLLLLLL",
"LLLLLLLX59zKmei7oLLLLLLLL",
"LLLLLLLX59zKmei7oLLLLLLLL",
"LLLLLLLX59zKmei7oLLLLLLLL",
"LLLLLLLX59zKlwi7oLLLLLLLL",
"LLLLLLLX59zKq9i7oLLLLLLLL",
"LLLLLLLX59zK09i7oLLLLLLLL",
"LLLLLLLX59zK09i7oLLLLLLLL",
"LLLLLLL.:4dSVh3>OLLLLLLLL",
"LLLLLLLL <99HB, LLLLLLLLL",
"LLLLLLLL <99nb, LLLLLLLLL",
"LLLLLLLLL#&&*=%LLLLLLLLLL",
"LLLLLLLLLL    LLLLLLLLLLL",
"LLLLLLLLLLLLLLLLLLLLLLLLL"
};
