/* XPM */
static char *result[] = {
/* columns rows colors chars-per-pixel */
"25 25 129 2 ",
"   c black",
".  c #0A0802",
"X  c #0C0A00",
"o  c #0F0D07",
"O  c #0F0E06",
"+  c #191600",
"@  c #1A180D",
"#  c #1E1C0F",
"$  c #211D04",
"%  c #262101",
"&  c #2A2602",
"*  c #332C01",
"=  c #332D01",
"-  c #342D01",
";  c #302B09",
":  c #3D3501",
">  c #3D3503",
",  c #3E3708",
"<  c #282614",
"1  c #302D18",
"2  c #635603",
"3  c #61560D",
"4  c #65590D",
"5  c #685B0D",
"6  c #736402",
"7  c #71630F",
"8  c #5F592F",
"9  c #625C30",
"0  c #827103",
"q  c #837311",
"w  c #B39E11",
"e  c #BDA618",
"r  c #A89A3E",
"t  c #C8AE04",
"y  c #C7AE0C",
"u  c #D1B608",
"i  c #C4AD19",
"p  c #C5AE1A",
"a  c #D1B81B",
"s  c #D5BC1B",
"d  c #DAC01A",
"f  c #E0C205",
"g  c #EECE01",
"h  c #EFCF02",
"j  c #EECF03",
"k  c #ECCD05",
"l  c #EECF05",
"z  c #EECF06",
"x  c #E0C40D",
"c  c #F0D005",
"v  c #F0D107",
"b  c #F5D505",
"n  c #F5D506",
"m  c #F5D606",
"M  c #F6D606",
"N  c #F1D208",
"B  c #F1D209",
"V  c #F2D309",
"C  c #F6D608",
"Z  c #F7D70A",
"A  c #F4D50D",
"S  c #F4D50E",
"D  c #F5D60F",
"F  c #F8D808",
"G  c #FADA0A",
"H  c #F8D90D",
"J  c #F8D90E",
"K  c #E1C61D",
"L  c #EED21C",
"P  c #F5D710",
"I  c #F4D611",
"U  c #F6D710",
"Y  c #F7D711",
"T  c #F5D612",
"R  c #F7D712",
"E  c #F7D812",
"W  c #F7D813",
"Q  c #F7D913",
"!  c #FADB11",
"~  c #F9DA13",
"^  c #F8D914",
"/  c #F9D915",
"(  c #FADB14",
")  c #FBDC15",
"_  c #F0D318",
"`  c #F1D418",
"'  c #F1D41E",
"]  c #FBDD18",
"[  c #FCDD19",
"{  c #FCDE1B",
"}  c #FDDE1B",
"|  c #FDDF1B",
" . c #FBDD1C",
".. c #FDDF1C",
"X. c #FDDF1D",
"o. c #FEE01F",
"O. c #EED425",
"+. c #F1D621",
"@. c #F1D622",
"#. c #FBDE21",
"$. c #FDDF20",
"%. c #FBDE26",
"&. c #FFE121",
"*. c #FEE127",
"=. c #FEE128",
"-. c #FFE229",
";. c #FFE32D",
":. c #FEE22E",
">. c #FFE32F",
",. c #FFE433",
"<. c #BDB05D",
"1. c #C2B458",
"2. c #F7DE41",
"3. c #F7DF45",
"4. c #F7E04B",
"5. c #FEE858",
"6. c #D2C361",
"7. c #E3D471",
"8. c #EEDE76",
"9. c #FEEA65",
"0. c #F1E074",
"q. c #F0E077",
"w. c #FEEC73",
"e. c #FFEC74",
"r. c #FEEC76",
"t. c #FFED79",
"y. c #FEED7A",
"u. c #FFED7A",
"i. c None",
/* pixels */
"i.i.i.i.i.i.i.i.i.i.i.i.i.i.i.i.i.i.i.i.i.i.i.i.i.",
"i.i.i.i.i.i.i.i.i.i.i.i.i.i.i.i.i.i.i.i.i.i.i.i.i.",
"i.i.i.i.i.i.i.i.i.i.; 1 1 1 1 1 i.i.i.i.i.i.i.i.i.",
"i.i.i.i.i.i.i.i.. 4 >.r.y.y.y.0.# i.i.i.i.i.i.i.i.",
"i.i.i.i.i.i.i.  q K $.` _ _ _ L 6.8   i.i.i.i.i.i.",
"i.i.i.i.i.i.i.5 i { E D D D D T 2.r 9 i.i.i.i.i.i.",
"i.i.i.i.i.i.  a &./ c o.;.,.>.o.j 4.<.  i.i.i.i.i.",
"i.i.i.i.i.i.+ s o.^ N X.5.w.9.=.v 3.1.@ i.i.i.i.i.",
"i.i.i.i.i.* f  .D A | C J ! %.e.*.I O.7.O i.i.i.i.",
"i.i.i.i.i.- l ..S A ..m F G #.u.-.A @.q.o i.i.i.i.",
"i.i.i.i.i.- l ..S A ..m F G #.u.-.A @.q.o i.i.i.i.",
"i.i.i.i.i.- l ..S A ..m F G #.u.-.A @.q.o i.i.i.i.",
"i.i.i.i.i.- l ..S A ..m F G #.u.-.A @.q.o i.i.i.i.",
"i.i.i.i.i.- l ..S A ..m F G #.u.-.A @.q.o i.i.i.i.",
"i.i.i.i.i.- l ..S A ..m F G #.u.-.A @.q.o i.i.i.i.",
"i.i.i.i.i.- l ..S A ..m F G #.u.-.A @.q.o i.i.i.i.",
"i.i.i.i.i.= k ..S A ..m F G #.t.-.A +.8.o i.i.i.i.",
"i.i.i.i.i.i.% u ( ^ V } H M J :.B W p < i.i.i.i.i.",
"i.i.i.i.i.i.  t ) / c o...[ } o.j Q e   i.i.i.i.i.",
"i.i.i.i.i.i.  6 y ~ U R R R R Y P w 7 i.i.i.i.i.i.",
"i.i.i.i.i.i.i.  0 x ] h g g h z d 3   i.i.i.i.i.i.",
"i.i.i.i.i.i.i.i.X 2 n b b b Z ' $ i.i.i.i.i.i.i.i.",
"i.i.i.i.i.i.i.i.i.& : : : : > , i.i.i.i.i.i.i.i.i.",
"i.i.i.i.i.i.i.i.i.i.          i.i.i.i.i.i.i.i.i.i.",
"i.i.i.i.i.i.i.i.i.i.i.i.i.i.i.i.i.i.i.i.i.i.i.i.i."
};
