/* XPM */
static char *result[] = {
/* columns rows colors chars-per-pixel */
"40 40 200 2 ",
"   c #2F2F2E",
".  c #352C2E",
"X  c #3B292E",
"o  c #382B2E",
"O  c #3C2B2F",
"+  c #31312F",
"@  c #392D30",
"#  c #3F2E30",
"$  c #3C2F32",
"%  c #3E2F32",
"&  c #313130",
"*  c #323231",
"=  c #333331",
"-  c #333332",
";  c #343433",
":  c #353534",
">  c #373735",
",  c #373736",
"<  c #3B3233",
"1  c #3C3435",
"2  c #3F3737",
"3  c #383836",
"4  c #383837",
"5  c #393938",
"6  c #3A3A38",
"7  c #3B3B39",
"8  c #3B3B3A",
"9  c #3C3C3A",
"0  c #3D3D3B",
"q  c #3E3E3C",
"w  c #3E3E3D",
"e  c #3F3F3D",
"r  c #521E2D",
"t  c #5B192C",
"y  c #581B2C",
"u  c #5E182C",
"i  c #5D1F30",
"p  c #631F32",
"a  c #671E32",
"s  c #6F1A31",
"d  c #6D1B32",
"f  c #691C32",
"g  c #6B1D32",
"h  c #6A1E33",
"j  c #711A32",
"k  c #701B33",
"l  c #731A33",
"z  c #741A33",
"x  c #771B34",
"c  c #791C34",
"v  c #7F1E35",
"b  c #41262D",
"n  c #47242D",
"m  c #4C212D",
"M  c #4D222E",
"N  c #42282F",
"B  c #43292F",
"V  c #402A2F",
"C  c #57202F",
"Z  c #4F2430",
"A  c #4E2530",
"S  c #4D2630",
"D  c #462830",
"F  c #472B32",
"G  c #482830",
"H  c #4C2A33",
"J  c #492D34",
"K  c #4B2E35",
"L  c #4E2E36",
"P  c #572230",
"I  c #522531",
"U  c #532632",
"Y  c #5B2131",
"T  c #5A2231",
"R  c #5C2131",
"E  c #582734",
"W  c #5C2634",
"Q  c #512B35",
"!  c #552A35",
"~  c #592932",
"^  c #5A2A32",
"/  c #582B36",
"(  c #5F2B36",
")  c #443035",
"_  c #413637",
"`  c #433739",
"'  c #473639",
"]  c #493338",
"[  c #413B3B",
"{  c #453A3C",
"}  c #413C3C",
"|  c #50363A",
" . c #583138",
".. c #5E313D",
"X. c #602233",
"o. c #612434",
"O. c #682332",
"+. c #682034",
"@. c #6B2535",
"#. c #6B2436",
"$. c #672C35",
"%. c #722035",
"&. c #762034",
"*. c #702637",
"=. c #7D2437",
"-. c #7C2A39",
";. c #603132",
":. c #663337",
">. c #65323B",
",. c #703132",
"<. c #7C333E",
"1. c #61443C",
"2. c #685130",
"3. c #4D4543",
"4. c #484846",
"5. c #474748",
"6. c #534147",
"7. c #695E5B",
"8. c #605F62",
"9. c #776360",
"0. c #7C6461",
"q. c #746868",
"w. c #706F73",
"e. c #767275",
"r. c #7E757B",
"t. c #787A7F",
"y. c #842036",
"u. c #852435",
"i. c #892237",
"p. c #862934",
"a. c #862E34",
"s. c #8B2B35",
"d. c #8C2238",
"f. c #8E2338",
"g. c #8A293A",
"h. c #912439",
"j. c #942539",
"k. c #96263A",
"l. c #99273A",
"z. c #902B3B",
"x. c #922B3B",
"c. c #94293B",
"v. c #952D3C",
"b. c #9E293B",
"n. c #8E3434",
"m. c #81333D",
"M. c #86363F",
"N. c #963337",
"B. c #973A36",
"V. c #9C3E35",
"C. c #98313E",
"Z. c #9E4936",
"A. c #A84739",
"S. c #A75334",
"D. c #B65D35",
"F. c #A46D36",
"G. c #A26638",
"H. c #B26135",
"J. c #C16935",
"K. c #9A3543",
"L. c #973845",
"P. c #A53C46",
"I. c #A73E48",
"U. c #934043",
"Y. c #9E4445",
"T. c #8E5E52",
"R. c #A54F4C",
"E. c #AA4F4A",
"W. c #A3574E",
"Q. c #AD5051",
"!. c #AB5154",
"~. c #A75D53",
"^. c #AD5B56",
"/. c #B05355",
"(. c #96665C",
"). c #A96251",
"_. c #A96154",
"`. c #A26658",
"'. c #A96758",
"]. c #AB6A58",
"[. c #BE6454",
"{. c #866761",
"}. c #9D756C",
"|. c #9D7D77",
" X c #AE6B68",
".X c #BD6C66",
"XX c #AD736D",
"oX c #C16359",
"OX c #C57D6E",
"+X c #BE8736",
"@X c #CD9735",
"#X c #DA9135",
"$X c #DA9635",
"%X c #DAA935",
"&X c #878082",
"*X c #979397",
"=X c #A58987",
"-X c #B0918E",
";X c #A9AAB3",
":X c None",
/* pixels */
":X:X:X:X:X:X:X:X:X:X:X:X:X:X:X:X:X:X:X:X:X:X:X:X:X:X:X:X:X:X:X:X:X:X:X:X:X:X:X:X",
":X:X:X:X:X:X:X:X:X:X:X:X:X:X:X:X:X:X:X:X:X:X:X:X:X:X:X:X:X:X:X:X:X:X:X:X:X:X:X:X",
":X:X:X:X:X:X:X:X:X:X:X:X:X:X:X:X:X:X:X:X:X:X:X:X:X:X:X:X:X:X:X:X:X:X:X:X:X:X:X:X",
":X:X:X:X:X:X:X:X:X:X:X:X:X:X:X:X:X:X:X:X:X:X:X:X:X:X:X:X:X:X:X:X:X:X:X:X:X:X:X:X",
":X:X:X:X:X:X:X:X:X:X:X:X:X:X:X:X:X:X:X:X:X:X:X:X:X:X:X:X:X:X:X:X:X:X:X:X:X:X:X:X",
":X:X:X:X:X:X:X:X:X:X:X:X:X:X:X:X:X:X:X:X:X:X:X:X:X:X:X:X:X:X:X:X:X:X:X:X:X:X:X:X",
":X:X:X:X:X:X:X:X:X:X:X:X:X:X:X:X:X:X:X:X:X:X:X:X:X:X:X:X:X:X:X:X:X:X:X:X:X:X:X:X",
":X:X:X:X:X:X:X:X:X:X:X:X:X:X:X:X:X:X:X:X:X:X:X:X:X:X:X:X:X:X:X:X:X:X:X:X:X:X:X:X",
":X:X:X:X:X:X:X:X:X:X:X:X:X:X:X:X:X:X:X:X        :X:X:X:X:X:X:X:X:X:X:X:X:X:X:X:X",
":X:X:X:X:X:X:X:X:X; 5 :X:X:X* - : :X:X:X* : , 8 - : :X:X:X:X:X:X:X:X:X:X:X:X:X:X",
":X:X:X:X:X:X:X* 1 ) } ; :X:X= - 7 7 > : :X  - 3 7 9 8 : :X:X:X:X:X:X:X:X:X:X:X:X",
":X:X:X:X:X:X* 3 Y s Q 4 :X:X:X:X: 7 7 q 4 9 H I / K 0 e :X:X:X:X:X:X:X:X:X:X:X:X",
":X:X:X:X:X:X@ Y I g h ' e , :X:X  + J ] 7 7 { >.j.f.l.*.9 :X:X:X:X:X:X:X:X:X:X:X",
":X:X:X:X:X:XR P   C l ! 4 :X:X:X  % E %.#.#. .| <.l.j.j.( :X:X:X:X:X:X:X:X:X:X:X",
":X:X:X:X:X:Xp I :XD z W : * * :X$ E c j.l.j.k.j.x.k.B.A.N.~ :X:X:X:X:X:X:X:X:X:X",
":X:X:X:X:X:Xi I :XN j s 3 6 , :XI z y.j.b.b.b.j.i.a.@X%XF.,.:X:X:X:X:X:X:X:X:X:X",
":X:X:X:X:X:XN s   :Xp z Y 2 > * s c f.b.b.i.S.+Xn.n.#X$XG.S.2.:X:X:X:X:X:X:X:X:X",
":X:X:X:X:X:X:XM B :Xp z j +.o.G z c j.b.b.h.V.H.p.u.D.J.Z.s.;.:X:X:X:X:X:X:X:X:X",
":X:X:X:X:X:X:X:X:X:XC z z k F < ] L @.=.b.b.l.g.L.K.d.i.f.c.M.# :X:X:X:X:X:X:X:X",
":X:X:X:X:X:X:X:X:X:XD z z U 6 7 7 7 0 >.i.i.z.oX]._.Q././.R. X$., :X:X:X:X:X:X:X",
":X:X:X:X:X:X:X* : ;     : 6 7 7 7 0 ` O.).).OX|.&X*X8.8.t.9.q.  , :X:X:X:X:X:X:X",
":X:X:X:X:X:X:X* 3 3 3 3 7 7 7 0 w [ X.c E.'.(.5.r.6.o . 5.0.1.:X:X:X:X:X:X:X:X:X",
":X:X:X:X:X:X:X:X:X:X- 6 e e e 6 H a z z v.W.T.X y u t m b e.3.:X:X:X:X:X:X:X:X:X",
":X:X:X:X:X:X:X:X:X:X:X:X        I z z z v Y.`.8.n y m r n 8.w.:X:X:X:X:X:X:X:X:X",
":X:X:X:X:X:X:X:X:X:X:X:X:X:X:X:X  P f z z z.[.-X&X7.*X  ;X}.U.  :X:X:X:X:X:X:X:X",
":X:X:X:X:X:X:X:X:X:X:X:X:X:X:X:X:XO p j z x C.!..X~.=X{.XX^.:.:X:X:X:X:X:X:X:X:X",
":X:X:X:X:X:X:X:X:X:X:X:X:X:X:X:X:X:XA Z z d d c &.-.P.I.m.^ :X:X:X:X:X:X:X:X:X:X",
":X:X:X:X:X:X:X:X:X:X:X:X:X:X:X:X:X:X:X  I T p z I _ ...., :X:X:X:X:X:X:X:X:X:X:X",
":X:X:X:X:X:X:X:X:X:X:X:X:X:X:X:X:X:X:X:X:X:XS I V 4 4.9 :X:X:X:X:X:X:X:X:X:X:X:X",
":X:X:X:X:X:X:X:X:X:X:X:X:X:X:X:X:X:X:X:X:X:X:X:X:X- e ; :X:X:X:X:X:X:X:X:X:X:X:X",
":X:X:X:X:X:X:X:X:X:X:X:X:X:X:X:X:X:X:X:X:X:X:X:X:X:X& :X:X:X:X:X:X:X:X:X:X:X:X:X",
":X:X:X:X:X:X:X:X:X:X:X:X:X:X:X:X:X:X:X:X:X:X:X:X:X:X:X:X:X:X:X:X:X:X:X:X:X:X:X:X",
":X:X:X:X:X:X:X:X:X:X:X:X:X:X:X:X:X:X:X:X:X:X:X:X:X:X:X:X:X:X:X:X:X:X:X:X:X:X:X:X",
":X:X:X:X:X:X:X:X:X:X:X:X:X:X:X:X:X:X:X:X:X:X:X:X:X:X:X:X:X:X:X:X:X:X:X:X:X:X:X:X",
":X:X:X:X:X:X:X:X:X:X:X:X:X:X:X:X:X:X:X:X:X:X:X:X:X:X:X:X:X:X:X:X:X:X:X:X:X:X:X:X",
":X:X:X:X:X:X:X:X:X:X:X:X:X:X:X:X:X:X:X:X:X:X:X:X:X:X:X:X:X:X:X:X:X:X:X:X:X:X:X:X",
":X:X:X:X:X:X:X:X:X:X:X:X:X:X:X:X:X:X:X:X:X:X:X:X:X:X:X:X:X:X:X:X:X:X:X:X:X:X:X:X",
":X:X:X:X:X:X:X:X:X:X:X:X:X:X:X:X:X:X:X:X:X:X:X:X:X:X:X:X:X:X:X:X:X:X:X:X:X:X:X:X",
":X:X:X:X:X:X:X:X:X:X:X:X:X:X:X:X:X:X:X:X:X:X:X:X:X:X:X:X:X:X:X:X:X:X:X:X:X:X:X:X",
":X:X:X:X:X:X:X:X:X:X:X:X:X:X:X:X:X:X:X:X:X:X:X:X:X:X:X:X:X:X:X:X:X:X:X:X:X:X:X:X"
};
