/* XPM */
static char *result[] = {
/* columns rows colors chars-per-pixel */
"40 40 203 2 ",
"   c #2F2F2E",
".  c #3F272D",
"X  c #352C2E",
"o  c #3B292E",
"O  c #3C2B2F",
"+  c #3B2F31",
"@  c #313130",
"#  c #323231",
"$  c #333332",
"%  c #343432",
"&  c #343433",
"*  c #353533",
"=  c #353534",
"-  c #373735",
";  c #373736",
":  c #3C3133",
">  c #3E3234",
",  c #3F3737",
"<  c #383836",
"1  c #383837",
"2  c #393938",
"3  c #3A3A38",
"4  c #3A3A39",
"5  c #3B3B39",
"6  c #3B3B3A",
"7  c #3C3C3A",
"8  c #3D3D3B",
"9  c #3E3E3C",
"0  c #3E3E3D",
"q  c #3F3F3D",
"w  c #521E2D",
"e  c #581B2C",
"r  c #591F2F",
"t  c #5D1F30",
"y  c #631C30",
"u  c #631F32",
"i  c #651D31",
"p  c #661C31",
"a  c #6F1A31",
"s  c #6D1B32",
"d  c #691C32",
"f  c #6B1D32",
"g  c #6A1E33",
"h  c #711A32",
"j  c #701B33",
"k  c #731A33",
"l  c #741A33",
"z  c #771B34",
"x  c #791C34",
"c  c #7F1E35",
"v  c #41262D",
"b  c #47242D",
"n  c #4C212D",
"m  c #402A2F",
"M  c #4F2430",
"N  c #4E2530",
"B  c #4D2630",
"V  c #452830",
"C  c #432D32",
"Z  c #412F33",
"A  c #462C33",
"S  c #4C2A33",
"D  c #4D2B33",
"F  c #4B2E31",
"G  c #4E2C34",
"H  c #4C2F36",
"J  c #572230",
"K  c #522531",
"L  c #5B2131",
"P  c #5A2231",
"I  c #5E2131",
"U  c #5C2532",
"Y  c #5F2635",
"T  c #502D32",
"R  c #522A34",
"E  c #522A35",
"W  c #552A35",
"Q  c #5A2A32",
"!  c #582B36",
"~  c #5C2F3B",
"^  c #463035",
"/  c #413637",
"(  c #413638",
")  c #403738",
"_  c #433739",
"`  c #493338",
"'  c #4A3438",
"]  c #4D363B",
"[  c #413839",
"{  c #433A3B",
"}  c #44393A",
"|  c #5E313D",
" . c #52383C",
".. c #602233",
"X. c #662235",
"o. c #6D2033",
"O. c #6B2134",
"+. c #6C2135",
"@. c #6E2735",
"#. c #732034",
"$. c #762034",
"%. c #702637",
"&. c #7B2A39",
"*. c #7C2A39",
"=. c #663337",
"-. c #673039",
";. c #7B313C",
":. c #5A4E30",
">. c #604530",
",. c #5F3C47",
"<. c #424240",
"1. c #4D4543",
"2. c #484846",
"3. c #474748",
"4. c #695653",
"5. c #695E5B",
"6. c #735C55",
"7. c #735E5A",
"8. c #605F62",
"9. c #7E6E6C",
"0. c #6C6D71",
"q. c #706F73",
"w. c #7B797C",
"e. c #787A7F",
"r. c #862137",
"t. c #862637",
"y. c #892237",
"u. c #872E33",
"i. c #822638",
"p. c #8C2238",
"a. c #8D2338",
"s. c #8E2338",
"d. c #812939",
"f. c #8E2B3B",
"g. c #962F37",
"h. c #912439",
"j. c #942539",
"k. c #99273A",
"l. c #902B3B",
"z. c #952A38",
"x. c #952D3C",
"c. c #9B283B",
"v. c #9E293B",
"b. c #8E3434",
"n. c #8E3934",
"m. c #81333D",
"M. c #973336",
"N. c #963337",
"B. c #933635",
"V. c #983836",
"C. c #98313E",
"Z. c #984236",
"A. c #9A4434",
"S. c #924E33",
"D. c #A75134",
"F. c #A55336",
"G. c #A36037",
"H. c #A26F38",
"J. c #BC6938",
"K. c #BE7E36",
"L. c #963440",
"P. c #A53C46",
"I. c #A73E48",
"U. c #934043",
"Y. c #9E4445",
"T. c #9A4649",
"R. c #8E5E52",
"E. c #A34748",
"W. c #A6474D",
"Q. c #A3574E",
"!. c #A3594D",
"~. c #AB5154",
"^. c #A75D53",
"/. c #AD5B56",
"(. c #B25550",
"). c #B05355",
"_. c #926256",
"`. c #A26151",
"'. c #A26658",
"]. c #BE6454",
"[. c #866761",
"{. c #91746E",
"}. c #9D756C",
"|. c #BD6C66",
" X c #AD736D",
".X c #B2766A",
"XX c #A67870",
"oX c #C57561",
"OX c #D48435",
"+X c #DA8D35",
"@X c #DAA435",
"#X c #DAA935",
"$X c #827D80",
"%X c #8D7C82",
"&X c #878082",
"*X c #8B888C",
"=X c #979397",
"-X c #A58987",
";X c #BB8B83",
":X c #BE8E86",
">X c #B0918E",
",X c #A9AAB3",
"<X c None",
/* pixels */
"<X<X<X<X<X<X<X<X<X<X<X<X<X<X<X<X<X<X<X<X<X<X<X<X<X<X<X<X<X<X<X<X<X<X<X<X<X<X<X<X",
"<X<X<X<X<X<X<X<X<X<X<X<X<X<X<X<X<X<X<X<X<X<X<X<X<X<X<X<X<X<X<X<X<X<X<X<X<X<X<X<X",
"<X<X<X<X<X<X<X<X<X<X<X<X<X<X<X<X<X<X<X<X<X<X<X<X<X<X<X<X<X<X<X<X<X<X<X<X<X<X<X<X",
"<X<X<X<X<X<X<X<X<X<X<X<X<X<X<X<X<X<X<X<X<X<X<X<X<X<X<X<X<X<X<X<X<X<X<X<X<X<X<X<X",
"<X<X<X<X<X<X<X<X<X<X<X<X<X<X<X<X<X<X<X<X<X<X<X<X<X<X<X<X<X<X<X<X<X<X<X<X<X<X<X<X",
"<X<X<X<X<X<X<X<X<X<X<X<X<X<X<X<X<X<X<X<X<X<X<X<X<X<X<X<X<X<X<X<X<X<X<X<X<X<X<X<X",
"<X<X<X<X<X<X<X<X<X<X<X<X<X<X<X<X<X<X<X<X<X<X<X<X<X<X<X<X<X<X<X<X<X<X<X<X<X<X<X<X",
"<X<X<X<X<X<X<X<X<X<X<X<X<X<X<X<X<X<X<X<X<X<X<X<X<X<X<X<X<X<X<X<X<X<X<X<X<X<X<X<X",
"<X<X<X<X<X<X<X<X<X<X<X<X<X<X<X<X<X<X<X<X<X<X<X<X<X<X<X<X<X<X<X<X<X<X<X<X<X<X<X<X",
"<X<X<X<X<X<X<X<X<X<X<X<X<X<X<X<X<X<X<X<X@ $ $ = <X<X<X<X<X<X<X<X<X<X<X<X<X<X<X<X",
"<X<X<X<X<X<Xm A ) 2 <X<X<X<X% = 6 < <X<X# $ < 8 < 4 = <X<X<X<X<X<X<X<X<X<X<X<X<X",
"<X<X<X<X<X<XB t L [ - = <X<X<X  < 8 1 1     @ = 5 5 0 ; <X<X<X<X<X<X<X<X<X<X<X<X",
"<X<X<X<X<X<X<X  a ..q   <X<X<X<X$ - 5 5 9 <.~ c c o.-.] ; <X<X<X<X<X<X<X<X<X<X<X",
"<X<X<X<X<X<X<X<XJ X.q & <X<X<X<X  # D ! ` ` }  .f.j.k.i.( <X<X<X<X<X<X<X<X<X<X<X",
"<X<X<X<X<X<X<X<XK X.q 8 <X<X<X<X@ S +.y.y.r.d.&.;.c.p.j.t.T <X<X<X<X<X<X<X<X<X<X",
"<X<X<X<X<X<X<X<XK g { 7 <X  <X<XC Y x j.v.k.k.j.v.s.F.J.Z.U <X<X<X<X<X<X<X<X<X<X",
"<X<X<X<X<X<X<X<XK l i Z < q     K x k.v.v.k.N.J.l n.@X#XH.S.:.<X<X<X<X<X<X<X<X<X",
"<X<X<X<X<X<X<X<XM k k g R ' ^ + p x s.v.v.y.D.K.b.u.OX+XG.A.>.<X<X<X<X<X<X<X<X<X",
"<X<X<X<X<X<X<X<Xo r k l l l I V X.O.a.j.v.c.z.B.c p.M.V.g.h.@.  <X<X<X<X<X<X<X<X",
"<X<X<X<X<X<X<X<X<Xo y l l f : < 5 , W %.v.v.k.L.).W.y.y.y.l.T.F <X<X<X<X<X<X<X<X",
"<X<X<X<X<X<X<X    <X<X. K > 5 5 5 5 0 E E.E.(.oX6.{.;X:XXX_.%XF 7 <X<X<X<X<X<X<X",
"<X<X<X<X<X<X<X# < - $ # < 3 5 5 8 9 H #.!.`..X9.*Xw.3.3.0.7.4.  = <X<X<X<X<X<X<X",
"<X<X<X<X<X<X<X<X$ * < 5 9 9 9 0 _ G j l x.Q.R.  ,.w n v X $X1.<X<X<X<X<X<X<X<X<X",
"<X<X<X<X<X<X<X<X<X<X  ; 7 7 7 = K l l l c Y.'.8.b e n b b e.q.<X<X<X<X<X<X<X<X<X",
"<X<X<X<X<X<X<X<X<X<X<X<X<X<X<X<X  J d l l l.].>X&X5.=X  ,X}.U.  <X<X<X<X<X<X<X<X",
"<X<X<X<X<X<X<X<X<X<X<X<X<X<X<X<X<XO u h l z C.~.|.^.-X[. X/.=.<X<X<X<X<X<X<X<X<X",
"<X<X<X<X<X<X<X<X<X<X<X<X<X<X<X<X<X<XN M l s s x $.*.P.I.m.Q <X<X<X<X<X<X<X<X<X<X",
"<X<X<X<X<X<X<X<X<X<X<X<X<X<X<X<X<X<X<X  K P u l K / | | ; <X<X<X<X<X<X<X<X<X<X<X",
"<X<X<X<X<X<X<X<X<X<X<X<X<X<X<X<X<X<X<X<X<X<XB K m 1 2.7 <X<X<X<X<X<X<X<X<X<X<X<X",
"<X<X<X<X<X<X<X<X<X<X<X<X<X<X<X<X<X<X<X<X<X<X<X<X<X$ q & <X<X<X<X<X<X<X<X<X<X<X<X",
"<X<X<X<X<X<X<X<X<X<X<X<X<X<X<X<X<X<X<X<X<X<X<X<X<X<X@ <X<X<X<X<X<X<X<X<X<X<X<X<X",
"<X<X<X<X<X<X<X<X<X<X<X<X<X<X<X<X<X<X<X<X<X<X<X<X<X<X<X<X<X<X<X<X<X<X<X<X<X<X<X<X",
"<X<X<X<X<X<X<X<X<X<X<X<X<X<X<X<X<X<X<X<X<X<X<X<X<X<X<X<X<X<X<X<X<X<X<X<X<X<X<X<X",
"<X<X<X<X<X<X<X<X<X<X<X<X<X<X<X<X<X<X<X<X<X<X<X<X<X<X<X<X<X<X<X<X<X<X<X<X<X<X<X<X",
"<X<X<X<X<X<X<X<X<X<X<X<X<X<X<X<X<X<X<X<X<X<X<X<X<X<X<X<X<X<X<X<X<X<X<X<X<X<X<X<X",
"<X<X<X<X<X<X<X<X<X<X<X<X<X<X<X<X<X<X<X<X<X<X<X<X<X<X<X<X<X<X<X<X<X<X<X<X<X<X<X<X",
"<X<X<X<X<X<X<X<X<X<X<X<X<X<X<X<X<X<X<X<X<X<X<X<X<X<X<X<X<X<X<X<X<X<X<X<X<X<X<X<X",
"<X<X<X<X<X<X<X<X<X<X<X<X<X<X<X<X<X<X<X<X<X<X<X<X<X<X<X<X<X<X<X<X<X<X<X<X<X<X<X<X",
"<X<X<X<X<X<X<X<X<X<X<X<X<X<X<X<X<X<X<X<X<X<X<X<X<X<X<X<X<X<X<X<X<X<X<X<X<X<X<X<X",
"<X<X<X<X<X<X<X<X<X<X<X<X<X<X<X<X<X<X<X<X<X<X<X<X<X<X<X<X<X<X<X<X<X<X<X<X<X<X<X<X"
};
