/* XPM */
static char *result[] = {
/* columns rows colors chars-per-pixel */
"40 40 182 2 ",
"   c #2F2F2E",
".  c #3F272D",
"X  c #352C2E",
"o  c #3B292E",
"O  c #3D2B2F",
"+  c #30302F",
"@  c #352F30",
"#  c #392E30",
"$  c #3F2E32",
"%  c #313130",
"&  c #323231",
"*  c #333332",
"=  c #343432",
"-  c #343433",
";  c #353534",
":  c #363634",
">  c #373735",
",  c #373736",
"<  c #3B3132",
"1  c #393535",
"2  c #3F3737",
"3  c #383836",
"4  c #383837",
"5  c #3A3A38",
"6  c #3B3B39",
"7  c #3B3B3A",
"8  c #3C3C3A",
"9  c #3D3D3B",
"0  c #3E3E3C",
"q  c #3E3E3D",
"w  c #581B2C",
"e  c #5D1F30",
"r  c #601F31",
"t  c #631F32",
"y  c #651D31",
"u  c #661C31",
"i  c #671E32",
"p  c #6D1B32",
"a  c #691C32",
"s  c #6B1D32",
"d  c #6A1E33",
"f  c #711A32",
"g  c #741A33",
"h  c #791C34",
"j  c #7F1E35",
"k  c #47242D",
"l  c #46252E",
"z  c #462830",
"x  c #432D32",
"c  c #452E31",
"v  c #4C2A33",
"b  c #4B2E31",
"n  c #482E34",
"m  c #4C2F36",
"M  c #572230",
"N  c #562331",
"B  c #522531",
"V  c #5A2231",
"C  c #5B2332",
"Z  c #552833",
"A  c #522A34",
"S  c #552A35",
"D  c #552C34",
"F  c #5C2833",
"G  c #582B36",
"H  c #552D38",
"J  c #5B2E39",
"K  c #403134",
"L  c #473337",
"P  c #413638",
"I  c #433739",
"U  c #47353A",
"Y  c #4F3038",
"T  c #4D363B",
"R  c #433A3B",
"E  c #433D3D",
"W  c #473C3D",
"Q  c #54373A",
"!  c #55343C",
"~  c #5E313D",
"^  c #533A3D",
"/  c #632234",
"(  c #6D2033",
")  c #6B2436",
"_  c #642836",
"`  c #672C35",
"'  c #722235",
"]  c #702637",
"[  c #7A2133",
"{  c #7D2937",
"}  c #7E2F34",
"|  c #7E2538",
" . c #732E38",
".. c #7B2A39",
"X. c #424240",
"o. c #434341",
"O. c #484846",
"+. c #4D4448",
"@. c #535355",
"#. c #685C5B",
"$. c #7B615B",
"%. c #605F62",
"&. c #685B61",
"*. c #756966",
"=. c #7A6C72",
"-. c #78777C",
";. c #822335",
":. c #822036",
">. c #842036",
",. c #862137",
"<. c #892237",
"1. c #8A2636",
"2. c #842338",
"3. c #8E2338",
"4. c #822939",
"5. c #89293A",
"6. c #8D2E3C",
"7. c #912439",
"8. c #942539",
"9. c #99273A",
"0. c #902B3B",
"q. c #922B3B",
"w. c #9B283B",
"e. c #9E293B",
"r. c #8B323D",
"t. c #953A35",
"y. c #9C3E35",
"u. c #994735",
"i. c #865532",
"p. c #9E5336",
"a. c #995535",
"s. c #AC5035",
"d. c #A45F36",
"f. c #B25C36",
"g. c #A76234",
"h. c #B26135",
"j. c #A27438",
"k. c #C16935",
"l. c #C17535",
"z. c #963440",
"x. c #963540",
"c. c #A13842",
"v. c #A73E48",
"b. c #8E4444",
"n. c #9E4147",
"m. c #87574C",
"M. c #8E5E52",
"N. c #AB4448",
"B. c #B34C4B",
"V. c #A8534F",
"C. c #A8564E",
"Z. c #AD5051",
"A. c #A95F53",
"S. c #B05355",
"D. c #B15C52",
"F. c #B95A52",
"G. c #90685D",
"H. c #A7655B",
"J. c #AB6A58",
"K. c #B86854",
"L. c #B6665F",
"P. c #AF5E64",
"I. c #9C6A60",
"U. c #8D7773",
"Y. c #8F7774",
"T. c #897977",
"R. c #8F7B7A",
"E. c #957A77",
"W. c #B26D66",
"Q. c #BA6962",
"!. c #A37369",
"~. c #C57561",
"^. c #D17E72",
"/. c #BE9136",
"(. c #DAA035",
"). c #DAA935",
"_. c #878082",
"`. c #909096",
"'. c #9F989C",
"]. c #A89395",
"[. c #A8A8AF",
"{. c None",
/* pixels */
"{.{.{.{.{.{.{.{.{.{.{.{.{.{.{.{.{.{.{.{.{.{.{.{.{.{.{.{.{.{.{.{.{.{.{.{.{.{.{.{.",
"{.{.{.{.{.{.{.{.{.{.{.{.{.{.{.{.{.{.{.{.{.{.{.{.{.{.{.{.{.{.{.{.{.{.{.{.{.{.{.{.",
"{.{.{.{.{.{.{.{.{.{.{.{.{.{.{.{.{.{.{.{.{.{.{.{.{.{.{.{.{.{.{.{.{.{.{.{.{.{.{.{.",
"{.{.{.{.{.{.{.{.{.{.{.{.{.{.{.{.{.{.{.{.{.{.{.{.{.{.{.{.{.{.{.{.{.{.{.{.{.{.{.{.",
"{.{.{.{.{.{.{.{.{.{.{.{.{.{.{.{.{.{.{.{.{.{.{.{.{.{.{.{.{.{.{.{.{.{.{.{.{.{.{.{.",
"{.{.{.{.{.{.{.{.{.{.{.{.{.{.{.{.{.{.{.{.{.{.{.{.{.{.{.{.{.{.{.{.{.{.{.{.{.{.{.{.",
"{.{.{.{.{.{.{.{.{.{.{.{.{.{.{.{.{.{.{.{.{.{.{.{.{.{.{.{.{.{.{.{.{.{.{.{.{.{.{.{.",
"{.{.{.{.{.{.{.{.{.{.{.{.{.{.{.{.{.{.{.{.{.{.{.{.{.{.{.{.{.{.{.{.{.{.{.{.{.{.{.{.",
"{.{.{.{.{.{.{.{.{.{.{.{.{.{.{.{.{.{.{.{.{.{.{.{.{.{.{.{.{.{.{.{.{.{.{.{.{.{.{.{.",
"{.{.{.{.{.{.{.{.{.{.{.{.{.{.{.{.{.{.{.{.{.{.{.{.{.{.{.{.{.{.{.{.{.{.{.{.{.{.{.{.",
"{.{.{.{.{.{.{.{.{.{.{.{.{.{.+ * * ; {.{.{.= : 3 5 - {.{.{.{.{.{.{.{.{.{.{.{.{.{.",
"{.{.{.{.{.{.{.{.{.{.{.{.{.{.& ; 3 9 3   {.{.% 3 6 9 5 , {.{.{.{.{.{.{.{.{.{.{.{.",
"{.{.{.{.{.{.{.{.{.{.{.{.{.{.{.{.  3 6 6 7 5 P B Z S 2 0 , {.{.{.{.{.{.{.{.{.{.{.",
"{.{.{.{.{.{.{.{.{.{.{.{.{.{.{.{.{.& 1 L 6 9 E J 5.:.4...W > {.{.{.{.{.{.{.{.{.{.",
"{.{.{.{.{.{.{.{.{.{.{.{.{.{.{.{.{.@ n / ] ) _ Q ^ 6.7.9.| D {.{.{.{.{.{.{.{.{.{.",
"{.{.{.{.{.{.{.  z {.{.{.{.{.{.{.{.< d j e.8.<.e...q.8.<.<.{ {.{.{.{.{.{.{.{.{.{.",
"{.{.{.{.{.{.{.  G * {.{.{.{.{.{.  t h <.e.e.e.e.<.>.g.)./.a.z {.{.{.{.{.{.{.{.{.",
"{.{.{.{.{.{.{.  i K - {.{.{.{.{.l p ,.9.e.w.1.f.p.[ l.(.j.d.i.{.{.{.{.{.{.{.{.{.",
"{.{.{.{.{.{.{.{.u Y 7 {.{.{.{.{.M g ,.9.e.w.1.s.u.;.y.k.h.t.} c {.{.{.{.{.{.{.{.",
"{.{.{.{.{.{.{.{.B y R , {.{.{.  A G ( <.8.e.e.8.g >.8.<.<.9.3.F {.{.{.{.{.{.{.{.",
"{.{.{.{.{.{.{.{.. a i H ; 5 4 6 6 6 6 0 <.<.<.z.~.J.V.S.S.Z.H.P.; ; {.{.{.{.{.{.",
"{.{.{.{.{.{.{.{.& $ C r $ : 5 6 6 6 0 I r.F.C.^.U.T.R.Y.Y.E.$.=.4 > {.{.{.{.{.{.",
"{.{.{.{.{.{.{.{.: 3 3 3 5 6 6 6 0 q m s h N.m.!.-.&.U X X @.#.  {.{.{.{.{.{.{.{.",
"{.{.{.{.{.{.{.{.{.  - ; X.X.X.X.8 v s g g 0.A.M.%.k w o k +.[.  {.{.{.{.{.{.{.{.",
"{.{.{.{.{.{.{.{.{.{.{.{.        {.z e g g h B.K._._.*.`.%.'.D.` {.{.{.{.{.{.{.{.",
"{.{.{.{.{.{.{.{.{.{.{.{.{.{.{.{.{.{.z g f g 2.c.L.Q.I.].G.W.b.b {.{.{.{.{.{.{.{.",
"{.{.{.{.{.{.{.{.{.{.{.{.{.{.{.{.{.{.{.N M g u g j ' x.v.n. .{.{.{.{.{.{.{.{.{.{.",
"{.{.{.{.{.{.{.{.{.{.{.{.{.{.{.{.{.{.{.{.z V B g g x ! ~ T ; {.{.{.{.{.{.{.{.{.{.",
"{.{.{.{.{.{.{.{.{.{.{.{.{.{.{.{.{.{.{.{.{.{.O B B # o.O.  {.{.{.{.{.{.{.{.{.{.{.",
"{.{.{.{.{.{.{.{.{.{.{.{.{.{.{.{.{.{.{.{.{.{.{.{.{.{.7 9 {.{.{.{.{.{.{.{.{.{.{.{.",
"{.{.{.{.{.{.{.{.{.{.{.{.{.{.{.{.{.{.{.{.{.{.{.{.{.{.{.% {.{.{.{.{.{.{.{.{.{.{.{.",
"{.{.{.{.{.{.{.{.{.{.{.{.{.{.{.{.{.{.{.{.{.{.{.{.{.{.{.{.{.{.{.{.{.{.{.{.{.{.{.{.",
"{.{.{.{.{.{.{.{.{.{.{.{.{.{.{.{.{.{.{.{.{.{.{.{.{.{.{.{.{.{.{.{.{.{.{.{.{.{.{.{.",
"{.{.{.{.{.{.{.{.{.{.{.{.{.{.{.{.{.{.{.{.{.{.{.{.{.{.{.{.{.{.{.{.{.{.{.{.{.{.{.{.",
"{.{.{.{.{.{.{.{.{.{.{.{.{.{.{.{.{.{.{.{.{.{.{.{.{.{.{.{.{.{.{.{.{.{.{.{.{.{.{.{.",
"{.{.{.{.{.{.{.{.{.{.{.{.{.{.{.{.{.{.{.{.{.{.{.{.{.{.{.{.{.{.{.{.{.{.{.{.{.{.{.{.",
"{.{.{.{.{.{.{.{.{.{.{.{.{.{.{.{.{.{.{.{.{.{.{.{.{.{.{.{.{.{.{.{.{.{.{.{.{.{.{.{.",
"{.{.{.{.{.{.{.{.{.{.{.{.{.{.{.{.{.{.{.{.{.{.{.{.{.{.{.{.{.{.{.{.{.{.{.{.{.{.{.{.",
"{.{.{.{.{.{.{.{.{.{.{.{.{.{.{.{.{.{.{.{.{.{.{.{.{.{.{.{.{.{.{.{.{.{.{.{.{.{.{.{.",
"{.{.{.{.{.{.{.{.{.{.{.{.{.{.{.{.{.{.{.{.{.{.{.{.{.{.{.{.{.{.{.{.{.{.{.{.{.{.{.{."
};
