/* XPM */
static char *result[] = {
/* columns rows colors chars-per-pixel */
"40 40 193 2 ",
"   c #2F2F2E",
".  c #352C2E",
"X  c #3B292E",
"o  c #3F282E",
"O  c #3A2C2F",
"+  c #313130",
"@  c #323231",
"#  c #333332",
"$  c #343432",
"%  c #343433",
"&  c #353534",
"*  c #363634",
"=  c #363635",
"-  c #373735",
";  c #373736",
":  c #3F3737",
">  c #383836",
",  c #383837",
"<  c #3A3A38",
"1  c #3A3A39",
"2  c #3B3B39",
"3  c #3B3B3A",
"4  c #3C3C3A",
"5  c #3D3D3B",
"6  c #3E3E3C",
"7  c #3E3E3D",
"8  c #3F3F3D",
"9  c #521E2D",
"0  c #5E182C",
"q  c #631C30",
"w  c #631F32",
"e  c #661C31",
"r  c #661E32",
"t  c #671E32",
"y  c #6F1A31",
"u  c #691C32",
"i  c #711A32",
"p  c #701B33",
"a  c #731A33",
"s  c #741A33",
"d  c #791C34",
"f  c #7B1D34",
"g  c #7F1E35",
"h  c #41262D",
"j  c #47242D",
"k  c #4C212D",
"l  c #4D222E",
"z  c #43292F",
"x  c #402A2F",
"c  c #44282F",
"v  c #57202F",
"b  c #4B2731",
"n  c #4E2530",
"m  c #442930",
"M  c #462830",
"N  c #432D32",
"B  c #4C2A33",
"V  c #4D2B33",
"C  c #4B2E31",
"Z  c #4E2C34",
"A  c #4C2F36",
"S  c #572230",
"D  c #522531",
"F  c #592332",
"G  c #5D2131",
"H  c #5E2232",
"J  c #5C2532",
"K  c #5F2635",
"L  c #502D32",
"P  c #522A35",
"I  c #552A35",
"U  c #582B36",
"Y  c #5C2F3B",
"T  c #413638",
"R  c #433739",
"E  c #473639",
"W  c #493338",
"Q  c #4D363B",
"!  c #44393A",
"~  c #433F3E",
"^  c #52383C",
"/  c #602233",
"(  c #622735",
")  c #6D2033",
"_  c #6B2134",
"`  c #6C2135",
"'  c #6E2735",
"]  c #622F39",
"[  c #732034",
"{  c #702637",
"}  c #7B2A39",
"|  c #673039",
" . c #7B313C",
".. c #5A4E30",
"X. c #58403A",
"o. c #604530",
"O. c #593F47",
"+. c #5F3C47",
"@. c #424240",
"#. c #464644",
"$. c #484846",
"%. c #474748",
"&. c #4F4F51",
"*. c #695653",
"=. c #735C55",
"-. c #735E5A",
";. c #605F62",
":. c #655C62",
">. c #6B5A61",
",. c #606265",
"<. c #7E6E6C",
"1. c #6C6D71",
"2. c #7B797C",
"3. c #862137",
"4. c #862637",
"5. c #892237",
"6. c #872E33",
"7. c #842338",
"8. c #822638",
"9. c #8C2238",
"0. c #8D2338",
"q. c #8E2338",
"w. c #812939",
"e. c #8E2B3B",
"r. c #962F37",
"t. c #912439",
"y. c #942539",
"u. c #99273A",
"i. c #902B3B",
"p. c #952A38",
"a. c #9B283B",
"s. c #9E293B",
"d. c #8E3434",
"f. c #8E3934",
"g. c #853B3F",
"h. c #973336",
"j. c #963337",
"k. c #933635",
"l. c #983836",
"z. c #984236",
"x. c #9A4434",
"c. c #924E33",
"v. c #A75134",
"b. c #A55336",
"n. c #BC6938",
"m. c #A27938",
"M. c #B07237",
"N. c #BE7E36",
"B. c #CD7B35",
"V. c #8B3C41",
"C. c #963440",
"Z. c #A13842",
"A. c #A73E48",
"S. c #9A4649",
"D. c #9C5049",
"F. c #8E5E52",
"G. c #85565A",
"H. c #A54146",
"J. c #A64747",
"K. c #AC4347",
"L. c #A34748",
"P. c #A6474D",
"I. c #A3594D",
"U. c #B5544E",
"Y. c #B25550",
"T. c #B05355",
"R. c #816259",
"E. c #926256",
"W. c #A26151",
"Q. c #B06759",
"!. c #B76B59",
"~. c #86716E",
"^. c #91746E",
"/. c #8A7979",
"(. c #9E7F7A",
"). c #BD6C66",
"_. c #BC6E69",
"`. c #A67065",
"'. c #B2766A",
"]. c #A67870",
"[. c #B27E7A",
"{. c #C57561",
"}. c #D48435",
"|. c #DAA035",
" X c #DAA435",
".X c #8D7C82",
"XX c #8B888C",
"oX c #959094",
"OX c #9F9699",
"+X c #BB8B83",
"@X c #BE8E86",
"#X c #AC9EA1",
"$X c None",
/* pixels */
"$X$X$X$X$X$X$X$X$X$X$X$X$X$X$X$X$X$X$X$X$X$X$X$X$X$X$X$X$X$X$X$X$X$X$X$X$X$X$X$X",
"$X$X$X$X$X$X$X$X$X$X$X$X$X$X$X$X$X$X$X$X$X$X$X$X$X$X$X$X$X$X$X$X$X$X$X$X$X$X$X$X",
"$X$X$X$X$X$X$X$X$X$X$X$X$X$X$X$X$X$X$X$X$X$X$X$X$X$X$X$X$X$X$X$X$X$X$X$X$X$X$X$X",
"$X$X$X$X$X$X$X$X$X$X$X$X$X$X$X$X$X$X$X$X$X$X$X$X$X$X$X$X$X$X$X$X$X$X$X$X$X$X$X$X",
"$X$X$X$X$X$X$X$X$X$X$X$X$X$X$X$X$X$X$X$X$X$X$X$X$X$X$X$X$X$X$X$X$X$X$X$X$X$X$X$X",
"$X$X$X$X$X$X$X$X$X$X$X$X$X$X$X$X$X$X$X$X$X$X$X$X$X$X$X$X$X$X$X$X$X$X$X$X$X$X$X$X",
"$X$X$X$X$X$X$X$X$X$X$X$X$X$X$X$X$X$X$X$X$X$X$X$X$X$X$X$X$X$X$X$X$X$X$X$X$X$X$X$X",
"$X$X$X$X$X$X$X$X$X$X$X$X$X$X$X$X$X$X$X$X$X$X$X$X$X$X$X$X$X$X$X$X$X$X$X$X$X$X$X$X",
"$X$X$X$X$X$X$X$X$X$X$X$X$X$X$X$X$X$X$X$X$X$X$X$X$X$X$X$X$X$X$X$X$X$X$X$X$X$X$X$X",
"$X$X$X$X$X$X$X$X$X$X$X$X$X$X$X$X$X$X$X$X+ # # & $X$X$X$X$X$X$X$X$X$X$X$X$X$X$X$X",
"$X$X$X$X$X$X$X$X$X$X$X$X$X$X$ & 3 > $X$X@ # > 5 > 1 & $X$X$X$X$X$X$X$X$X$X$X$X$X",
"$X$X$X$X$X$X$X$X$X$X$X$X$X$X$X  > 5 , ,     + & 2 2 7 ; $X$X$X$X$X$X$X$X$X$X$X$X",
"$X$X$X$X$X$X$X$X$X$X$X$X$X$X$X$X# - 2 2 6 @.Y g g ) | Q ; $X$X$X$X$X$X$X$X$X$X$X",
"$X$X$X$X$X$X$X$X$X$X$X$X$X$X$X$X  @ V U W W ! ^ e.y.u.8.T $X$X$X$X$X$X$X$X$X$X$X",
"$X$X$X$X$X$X$X$X$X$X$X$X$X$X$X$X+ B ` 5.5.3.w.}  .a.9.y.4.L $X$X$X$X$X$X$X$X$X$X",
"$X$X$X$X$X$X$X$X$X$X$X$X$X$X$X$XN K d y.s.u.u.y.s.q.b.n.z.J $X$X$X$X$X$X$X$X$X$X",
"$X$X$X$X$X$X$X$X$X$X$X$X$X$X$X$XD d u.s.s.u.j.n.s f. Xm.|.c...$X$X$X$X$X$X$X$X$X",
"$X$X$X$X$X$X$X$X$X$X$X$X$X$X$X$XS d q.s.s.5.v.N.d.6.}.M.B.x.o.$X$X$X$X$X$X$X$X$X",
"$X$X$X$X$X$X$X$X$X$X$X$X$X$X$X+ H _ 0.y.s.a.p.k.g 9.h.l.r.t.'   $X$X$X$X$X$X$X$X",
"$X$X$X$X$X$X$X$X$X$X$X$X$X$X% > 2 : I { s.s.u.C.T.P.5.5.5.i.S.C $X$X$X$X$X$X$X$X",
"$X$X$X$X$X$X$X    $X$X$X  * 2 2 2 2 7 P L.L.Y.{.=.^.+X@X].E..XC 4 $X$X$X$X$X$X$X",
"$X$X$X$X$X$X$X@ > - # # > < 2 2 5 6 A [ I.W.'.<.XX2.%.%.1.-.*.  & $X$X$X$X$X$X$X",
"$X$X$X$X$X$Xb % $ ; > 2 6 6 6 7 R Z p s K.Q.F.. +.9 k h . /.X.$X$X$X$X$X$X$X$X$X",
"$X$X$X$X$X$XF E > 8   & 4 4 4 & D s s s 5.D.F.X 0 0 0 9 j ,.&.$X$X$X$X$X$X$X$X$X",
"$X$X$X$X$X$Xl y / U t s s s q j M u i s s Z.!.OX;.O.:.X >.~.G.$X$X$X$X$X$X$X$X$X",
"$X$X$X$X$X$X$Xl u a s s u v o $X$Xn r s s 7.U.[.(.R.oX~ #X`.g.$X$X$X$X$X$X$X$X$X",
"$X$X$X$X$X$X$X$XX c M M X $X$X$X$X$XG e s a f i.A.H._.).J.V.$X$X$X$X$X$X$X$X$X$X",
"$X$X$X$X$X$X$X$X$X$X$X$X$X$X$X$X$X$Xx x s u u s w ( 5.5.] x $X$X$X$X$X$X$X$X$X$X",
"$X$X$X$X$X$X$X$X$X$X$X$X$X$X$X$X$X$X$X$X  z w s D 3 $.@.$X$X$X$X$X$X$X$X$X$X$X$X",
"$X$X$X$X$X$X$X$X$X$X$X$X$X$X$X$X$X$X$X$X$X$Xm M O = #.< $X$X$X$X$X$X$X$X$X$X$X$X",
"$X$X$X$X$X$X$X$X$X$X$X$X$X$X$X$X$X$X$X$X$X$X$X$X$X$X=   $X$X$X$X$X$X$X$X$X$X$X$X",
"$X$X$X$X$X$X$X$X$X$X$X$X$X$X$X$X$X$X$X$X$X$X$X$X$X$X$X$X$X$X$X$X$X$X$X$X$X$X$X$X",
"$X$X$X$X$X$X$X$X$X$X$X$X$X$X$X$X$X$X$X$X$X$X$X$X$X$X$X$X$X$X$X$X$X$X$X$X$X$X$X$X",
"$X$X$X$X$X$X$X$X$X$X$X$X$X$X$X$X$X$X$X$X$X$X$X$X$X$X$X$X$X$X$X$X$X$X$X$X$X$X$X$X",
"$X$X$X$X$X$X$X$X$X$X$X$X$X$X$X$X$X$X$X$X$X$X$X$X$X$X$X$X$X$X$X$X$X$X$X$X$X$X$X$X",
"$X$X$X$X$X$X$X$X$X$X$X$X$X$X$X$X$X$X$X$X$X$X$X$X$X$X$X$X$X$X$X$X$X$X$X$X$X$X$X$X",
"$X$X$X$X$X$X$X$X$X$X$X$X$X$X$X$X$X$X$X$X$X$X$X$X$X$X$X$X$X$X$X$X$X$X$X$X$X$X$X$X",
"$X$X$X$X$X$X$X$X$X$X$X$X$X$X$X$X$X$X$X$X$X$X$X$X$X$X$X$X$X$X$X$X$X$X$X$X$X$X$X$X",
"$X$X$X$X$X$X$X$X$X$X$X$X$X$X$X$X$X$X$X$X$X$X$X$X$X$X$X$X$X$X$X$X$X$X$X$X$X$X$X$X",
"$X$X$X$X$X$X$X$X$X$X$X$X$X$X$X$X$X$X$X$X$X$X$X$X$X$X$X$X$X$X$X$X$X$X$X$X$X$X$X$X"
};
