/* XPM */
static char *result[] = {
/* columns rows colors chars-per-pixel */
"40 40 198 2 ",
"   c #2F2F2E",
".  c #3F272D",
"X  c #352E2F",
"o  c #362E2F",
"O  c #3B292E",
"+  c #382A2E",
"@  c #3D2B2F",
"#  c #30302F",
"$  c #352F30",
"%  c #3B2F31",
"&  c #323231",
"*  c #333332",
"=  c #343432",
"-  c #343433",
";  c #353534",
":  c #363634",
">  c #373735",
",  c #373736",
"<  c #393132",
"1  c #3E3234",
"2  c #3F3737",
"3  c #383836",
"4  c #3A3A38",
"5  c #3A3A39",
"6  c #3B3B39",
"7  c #3B3B3A",
"8  c gray23",
"9  c #3C3C3A",
"0  c #3D3D3B",
"q  c #3E3E3C",
"w  c #3E3E3D",
"e  c #3F3F3D",
"r  c #521E2D",
"t  c #5E182C",
"y  c #5D1F30",
"u  c #631F32",
"i  c #661C31",
"p  c #6F1A31",
"a  c #691C32",
"s  c #6B1D32",
"d  c #6C1E33",
"f  c #6D1E34",
"g  c #701B33",
"h  c #731A33",
"j  c #741A33",
"k  c #741B33",
"l  c #771B34",
"z  c #791C34",
"x  c #7F1E35",
"c  c #41262D",
"v  c #43272E",
"b  c #47242D",
"n  c #4C212D",
"m  c #4C242F",
"M  c #42292F",
"N  c #55212F",
"B  c #492730",
"V  c #442930",
"C  c #462830",
"Z  c #432D32",
"A  c #412F33",
"S  c #452E31",
"D  c #452E33",
"F  c #4B2932",
"G  c #482B32",
"H  c #4E2832",
"J  c #482E34",
"K  c #4B2F36",
"L  c #4C2F36",
"P  c #532330",
"I  c #562331",
"U  c #522531",
"Y  c #572532",
"T  c #5E2132",
"R  c #5C2333",
"E  c #5C2734",
"W  c #552833",
"Q  c #542D32",
"!  c #522A34",
"~  c #552A35",
"^  c #552C34",
"/  c #562C35",
"(  c #582B36",
")  c #5F2C34",
"_  c #453034",
"`  c #473035",
"'  c #473337",
"]  c #413638",
"[  c #493338",
"{  c #4D363B",
"}  c #413D3C",
"|  c #54373A",
" . c #533A3D",
".. c #50393E",
"X. c #652033",
"o. c #632234",
"O. c #6B2436",
"+. c #642836",
"@. c #702637",
"#. c #7D2437",
"$. c #7E2F34",
"%. c #7E2538",
"&. c #7E2D3C",
"*. c #693539",
"=. c #74343C",
"-. c #41413F",
";. c #593F47",
":. c #454543",
">. c #484846",
",. c #4A474A",
"<. c #535355",
"1. c #775B55",
"2. c #605F62",
"3. c #655C62",
"4. c #6D6063",
"5. c #6E6665",
"6. c #78777C",
"7. c #812733",
"8. c #822335",
"9. c #842036",
"0. c #862137",
"q. c #892237",
"w. c #8A2636",
"e. c #862934",
"r. c #802D36",
"t. c #8E2338",
"y. c #872839",
"u. c #8D2E3C",
"i. c #912439",
"p. c #942539",
"a. c #99273A",
"s. c #922B38",
"d. c #95293A",
"f. c #932A3C",
"g. c #9B283B",
"h. c #9E293B",
"j. c #89313E",
"k. c #9C3E35",
"l. c #97323F",
"z. c #9D4337",
"x. c #994735",
"c. c #965D33",
"v. c #AC5035",
"b. c #A76234",
"n. c #A46436",
"m. c #A26F38",
"M. c #B26135",
"N. c #C16935",
"B. c #C16E35",
"V. c #C17235",
"C. c #8F3341",
"Z. c #963440",
"A. c #9A3945",
"S. c #A13842",
"D. c #A13B43",
"F. c #A43B45",
"G. c #A53C46",
"H. c #87574C",
"J. c #93564B",
"K. c #965E4F",
"L. c #8C5C50",
"P. c #8D5D52",
"I. c #8E5E52",
"U. c #A04245",
"Y. c #AC4347",
"T. c #A84A48",
"R. c #A8534F",
"E. c #A9544E",
"W. c #AD5051",
"Q. c #AE5653",
"!. c #B05355",
"~. c #B15C52",
"^. c #B85B50",
"/. c #85625B",
"(. c #A96251",
"). c #A7655B",
"_. c #AB6A58",
"`. c #AF5E64",
"'. c #816B65",
"]. c #9B7C77",
"[. c #9C7E79",
"{. c #A37369",
"}. c #A47977",
"|. c #C15B54",
" X c #C86458",
".X c #C57561",
"XX c #C27773",
"oX c #BE9136",
"OX c #DA9635",
"+X c #DAA935",
"@X c #807D81",
"#X c #878082",
"$X c #938B8D",
"%X c #909096",
"&X c #919299",
"*X c #A78E8D",
"=X c #E0998B",
"-X c None",
/* pixels */
"-X-X-X-X-X-X-X-X-X-X-X-X-X-X-X-X-X-X-X-X-X-X-X-X-X-X-X-X-X-X-X-X-X-X-X-X-X-X-X-X",
"-X-X-X-X-X-X-X-X-X-X-X-X-X-X-X-X-X-X-X-X-X-X-X-X-X-X-X-X-X-X-X-X-X-X-X-X-X-X-X-X",
"-X-X-X-X-X-X-X-X-X-X-X-X-X-X-X-X-X-X-X-X-X-X-X-X-X-X-X-X-X-X-X-X-X-X-X-X-X-X-X-X",
"-X-X-X-X-X-X-X-X-X-X-X-X-X-X-X-X-X-X-X-X-X-X-X-X-X-X-X-X-X-X-X-X-X-X-X-X-X-X-X-X",
"-X-X-X-X-X-X-X-X-X-X-X-X-X-X-X-X-X-X-X-X-X-X-X-X-X-X-X-X-X-X-X-X-X-X-X-X-X-X-X-X",
"-X-X-X-X-X-X-X-X-X-X-X-X-X-X-X-X-X-X-X-X-X-X-X-X-X-X-X-X-X-X-X-X-X-X-X-X-X-X-X-X",
"-X-X-X-X-X-X-X-X-X-X-X-X-X-X-X-X-X-X-X-X-X-X-X-X-X-X-X-X-X-X-X-X-X-X-X-X-X-X-X-X",
"-X-X-X-X-X-X-X-X-X-X-X-X-X-X-X-X-X-X-X-X-X-X-X-X-X-X-X-X-X-X-X-X-X-X-X-X-X-X-X-X",
"-X-X-X-X-X-X-X-X-X-X-X-X-X-X-X-X-X-X-X-X-X      -X-X-X-X-X-X-X-X-X-X-X-X-X-X-X-X",
"-X-X-X-X-X-X-X-X-X-X-X-X-X-X# * * ; -X-X-X= : 3 4 - -X-X-X-X-X-X-X-X-X-X-X-X-X-X",
"-X-X-X-X-X-X-X-X-X-X-X-X-X-X-X* : 6 5 * ; -X# ; 4 9 6 7 -X-X-X-X-X-X-X-X-X-X-X-X",
"-X-X-X-X-X-X-X-X-X-X-X-X-X-X-X-X  3 6 6 7 4 ] U W ~ 2 q , -X-X-X-X-X-X-X-X-X-X-X",
"-X-X-X-X-X-X-X-X-X-X-X-X-X-X-X-X-X  < ! 6 6 0 { j.t.a.p..., -X-X-X-X-X-X-X-X-X-X",
"-X-X-X-X-X-X-X-X-X-X-X-X-X-X-X-X-X$ J o.@.O.+.|  .u.i.a.%.^ -X-X-X-X-X-X-X-X-X-X",
"-X-X-X-X-X-X-X-X-X-X-X-X-X-X-X-X-XD d x h.a.t.h.y.d.s.z.z.r.-X-X-X-X-X-X-X-X-X-X",
"-X-X-X-X-X-X-X-X-X-X-X-X-X-X-X-X  u z q.h.h.h.h.q.9.b.+XoXb.C -X-X-X-X-X-X-X-X-X",
"-X-X-X-X-X-X-X-X-X-X-X-X& 3   * O a 9.p.h.a.e.V.n.7.B.OXm.B.c.  -X-X-X-X-X-X-X-X",
"-X-X-X-X-X-X-X-X-X-X-X-X; } _ G N h 0.a.h.g.w.v.x.8.k.N.M.k.$.S -X-X-X-X-X-X-X-X",
"-X-X-X-X-X-X-X-X-X-X-X& H X.T % ' [ E @.p.h.h.p.C.A.f.q.q.i.l.=.  -X-X-X-X-X-X-X",
"-X-X-X-X-X-X-X-X-X-X& A p s 1 6 6 6 6 q q.q.q.Z..X_.R.!.!.W.).`.; ; -X-X-X-X-X-X",
"-X-X-X-X-X-X-X  ; ; o m Z > 6 6 6 6 w ` T.(.(.=X#X$X6.2.2.@X1.2.; ; -X-X-X-X-X-X",
"-X-X-X-X-X-X-X-X: 3 3 3 4 6 6 6 q w L s Y.J.H.{.6.2.8     <.P.  -X-X-X-X-X-X-X-X",
"-X-X-X-X-X-X-X& 4 K F Z e e e e ; Y g j 9.|.L.I.O n r b c ,./.  -X-X-X-X-X-X-X-X",
"-X-X-X-X-X-Xv W ( f i U           u j j j S.H.I.r t t t r O 2.  -X-X-X-X-X-X-X-X",
"-X-X-X-X-X-X-X. b + -X-X-X-X-X-X-XI p j j x  XK.%X3.;.2.b 4.}.Q -X-X-X-X-X-X-X-X",
"-X-X-X-X-X-X-X-X-X-X-X-X-X-X-X-X-XV P j j l D.^.].[.'.&X5.*XE.) -X-X-X-X-X-X-X-X",
"-X-X-X-X-X-X-X-X-X-X-X-X-X-X-X-X-X-XM s i j k x F.G.Q.XX~.U.*.-X-X-X-X-X-X-X-X-X",
"-X-X-X-X-X-X-X-X-X-X-X-X-X-X-X-X-X-X-XC U j y j j R #.q.&./ -X-X-X-X-X-X-X-X-X-X",
"-X-X-X-X-X-X-X-X-X-X-X-X-X-X-X-X-X-X-X-X-X@ B j j Z :.>., -X-X-X-X-X-X-X-X-X-X-X",
"-X-X-X-X-X-X-X-X-X-X-X-X-X-X-X-X-X-X-X-X-X-X-XC C X -.:.-X-X-X-X-X-X-X-X-X-X-X-X",
"-X-X-X-X-X-X-X-X-X-X-X-X-X-X-X-X-X-X-X-X-X-X-X-X-X-X: ; -X-X-X-X-X-X-X-X-X-X-X-X",
"-X-X-X-X-X-X-X-X-X-X-X-X-X-X-X-X-X-X-X-X-X-X-X-X-X-X-X  -X-X-X-X-X-X-X-X-X-X-X-X",
"-X-X-X-X-X-X-X-X-X-X-X-X-X-X-X-X-X-X-X-X-X-X-X-X-X-X-X-X-X-X-X-X-X-X-X-X-X-X-X-X",
"-X-X-X-X-X-X-X-X-X-X-X-X-X-X-X-X-X-X-X-X-X-X-X-X-X-X-X-X-X-X-X-X-X-X-X-X-X-X-X-X",
"-X-X-X-X-X-X-X-X-X-X-X-X-X-X-X-X-X-X-X-X-X-X-X-X-X-X-X-X-X-X-X-X-X-X-X-X-X-X-X-X",
"-X-X-X-X-X-X-X-X-X-X-X-X-X-X-X-X-X-X-X-X-X-X-X-X-X-X-X-X-X-X-X-X-X-X-X-X-X-X-X-X",
"-X-X-X-X-X-X-X-X-X-X-X-X-X-X-X-X-X-X-X-X-X-X-X-X-X-X-X-X-X-X-X-X-X-X-X-X-X-X-X-X",
"-X-X-X-X-X-X-X-X-X-X-X-X-X-X-X-X-X-X-X-X-X-X-X-X-X-X-X-X-X-X-X-X-X-X-X-X-X-X-X-X",
"-X-X-X-X-X-X-X-X-X-X-X-X-X-X-X-X-X-X-X-X-X-X-X-X-X-X-X-X-X-X-X-X-X-X-X-X-X-X-X-X",
"-X-X-X-X-X-X-X-X-X-X-X-X-X-X-X-X-X-X-X-X-X-X-X-X-X-X-X-X-X-X-X-X-X-X-X-X-X-X-X-X"
};
