/* XPM */
static char *result[] = {
/* columns rows colors chars-per-pixel */
"40 40 204 2 ",
"   c #2F2F2E",
".  c #352C2E",
"X  c #3B292E",
"o  c #382A2E",
"O  c #392A2E",
"+  c #382B2E",
"@  c #3A2C2F",
"#  c #3F2D31",
"$  c #313130",
"%  c #323231",
"&  c #333332",
"*  c #343432",
"=  c #343433",
"-  c #353533",
";  c #353534",
":  c #363634",
">  c #363635",
",  c #373735",
"<  c #373736",
"1  c #3D3435",
"2  c #383836",
"3  c #383837",
"4  c #393937",
"5  c #3A3A38",
"6  c #3A3A39",
"7  c #3B3B39",
"8  c #3B3B3A",
"9  c #3D3938",
"0  c #3C3C3A",
"q  c #3D3D3B",
"w  c #3E3E3C",
"e  c #3E3E3D",
"r  c #521E2D",
"t  c #5B192C",
"y  c #5D1F30",
"u  c #601F31",
"i  c #611F31",
"p  c #631F32",
"a  c #661C31",
"s  c #661E32",
"d  c #661F33",
"f  c #6F1A31",
"g  c #691C32",
"h  c #711A32",
"j  c #701B33",
"k  c #731A33",
"l  c #741A33",
"z  c #791C34",
"x  c #7B1D34",
"c  c #7F1E35",
"v  c #41262D",
"b  c #42262D",
"n  c #47242D",
"m  c #4C212D",
"M  c #4C222E",
"N  c #4C242F",
"B  c #43292F",
"V  c #452830",
"C  c #462830",
"Z  c #432D32",
"A  c #4A2931",
"S  c #4C2A33",
"D  c #4B2E31",
"F  c #4E2C34",
"G  c #532330",
"H  c #562331",
"J  c #522531",
"K  c #5A2231",
"L  c #5D2131",
"P  c #5B2433",
"I  c #592634",
"U  c #512933",
"Y  c #502D32",
"T  c #522A34",
"R  c #522A35",
"E  c #552834",
"W  c #522E36",
"Q  c #592D33",
"!  c #582B36",
"~  c #5C2F3B",
"^  c #413235",
"/  c #473035",
"(  c #473337",
")  c #433537",
"_  c #483136",
"`  c #423738",
"'  c #433739",
"]  c #493338",
"[  c #4D363B",
"{  c #503237",
"}  c #573930",
"|  c #602233",
" . c #662235",
".. c #6D2033",
"X. c #692034",
"o. c #6B2134",
"O. c #6C2135",
"+. c #6E2735",
"@. c #672C32",
"#. c #6B2C39",
"$. c #74293A",
"%. c #7B2A39",
"&. c #673039",
"*. c #76363A",
"=. c #7B313C",
"-. c #40403E",
";. c #5A4E30",
":. c #58403A",
">. c #5E423B",
",. c #593F47",
"<. c #424240",
"1. c #434341",
"2. c #484846",
"3. c #474748",
"4. c #4D4448",
"5. c #56504F",
"6. c #705854",
"7. c #735C55",
"8. c #605F62",
"9. c #655C62",
"0. c #6B5A61",
"q. c #606064",
"w. c #812733",
"e. c #842036",
"r. c #862137",
"t. c #862637",
"y. c #892237",
"u. c #8A2936",
"i. c #8C2238",
"p. c #8D2338",
"a. c #8E2338",
"s. c #812939",
"d. c #962F37",
"f. c #912439",
"g. c #942539",
"h. c #99273A",
"j. c #902B3B",
"k. c #952A38",
"l. c #94293B",
"z. c #9B283B",
"x. c #9E293B",
"c. c #8E3434",
"v. c #8E3934",
"b. c #89313E",
"n. c #973336",
"m. c #963337",
"M. c #933635",
"N. c #983836",
"B. c #924E33",
"V. c #A74F34",
"C. c #AC6335",
"Z. c #BC6938",
"A. c #A27938",
"S. c #B97535",
"D. c #BE7436",
"F. c #BD7D37",
"G. c #C16935",
"H. c #CD7635",
"J. c #8B3C41",
"K. c #9B3944",
"L. c #9D3A46",
"P. c #9A3D44",
"I. c #A13842",
"U. c #A73E48",
"Y. c #9D4A47",
"T. c #9C5049",
"R. c #8E5E52",
"E. c #85565A",
"W. c #A54146",
"Q. c #A64747",
"!. c #AC4347",
"~. c #A34748",
"^. c #AC4C4C",
"/. c #A75451",
"(. c #AD5F56",
"). c #A45959",
"_. c #B25550",
"`. c #926256",
"'. c #9B6052",
"]. c #986255",
"[. c #996558",
"{. c #B06759",
"}. c #B76B59",
"|. c #B06A5F",
" X c #9F6F66",
".X c #86716E",
"XX c #91746E",
"oX c #8A7979",
"OX c #B56A66",
"+X c #BD6C66",
"@X c #BC6E69",
"#X c #A67870",
"$X c #B57E73",
"%X c #C57561",
"&X c #DAA035",
"*X c #DAA435",
"=X c #8D7C82",
"-X c #938D91",
";X c #909096",
":X c #9F9699",
">X c #BB8B83",
",X c #BE8E86",
"<X c #B0918E",
"1X c None",
/* pixels */
"1X1X1X1X1X1X1X1X1X1X1X1X1X1X1X1X1X1X1X1X1X1X1X1X1X1X1X1X1X1X1X1X1X1X1X1X1X1X1X1X",
"1X1X1X1X1X1X1X1X1X1X1X1X1X1X1X1X1X1X1X1X1X1X1X1X1X1X1X1X1X1X1X1X1X1X1X1X1X1X1X1X",
"1X1X1X1X1X1X1X1X1X1X1X1X1X1X1X1X1X1X1X1X1X1X1X1X1X1X1X1X1X1X1X1X1X1X1X1X1X1X1X1X",
"1X1X1X1X1X1X1X1X1X1X1X1X1X1X1X1X1X1X1X1X1X1X1X1X1X1X1X1X1X1X1X1X1X1X1X1X1X1X1X1X",
"1X1X1X1X1X1X1X1X1X1X1X1X1X1X1X1X1X1X1X1X1X1X1X1X1X1X1X1X1X1X1X1X1X1X1X1X1X1X1X1X",
"1X1X1X1X1X1X1X1X1X1X1X1X1X1X1X1X1X1X1X1X1X1X1X1X1X1X1X1X1X1X1X1X1X1X1X1X1X1X1X1X",
"1X1X1X1X1X1X1X1X1X1X1X1X1X1X1X1X1X1X1X1X1X1X1X1X1X1X1X1X1X1X1X1X1X1X1X1X1X1X1X1X",
"1X1X1X1X1X1X1X1X1X1X1X1X1X1X1X1X1X1X1X1X1X1X1X1X1X1X1X1X1X1X1X1X1X1X1X1X1X1X1X1X",
"1X1X1X1X1X1X1X1X  ; ; 1X1X1X      1X1X1X% ; ; 3   1X1X1X1X1X1X1X1X1X1X1X1X1X1X1X",
"1X1X1X1X1X1X1X1X  4 0 & & 5 ; ; 8 2 1X1X% & 2 q 2 6 ; 1X1X1X1X1X1X1X1X1X1X1X1X1X",
"1X1X1X1X1X1X1X1X$ ^ I  .| _ * 1X, 0 5 8 ; < # Z ] ) w 8 1X1X1X1X1X1X1X1X1X1X1X1X",
"1X1X1X1X1X1X1X1X; | l l l | %   % , 7 7 w <.~ c c ..&.[ < 1X1X1X1X1X1X1X1X1X1X1X",
"1X1X1X1X1X1X1X  T f y f l h ( 8   * U  .! ! ` w b.h.h.g./ 1X1X1X1X1X1X1X1X1X1X1X",
"1X1X1X1X1X1X1X  ! s O G l l P 1 $ S O.y.y.r.s.%.=.z.i.g.t.Y 1X1X1X1X1X1X1X1X1X1X",
"1X1X1X1X1X1X1X  ! p 1X1Xa l k d A X.c g.x.z.z.g.g.u.S.F.C.@.1X1X1X1X1X1X1X1X1X1X",
"1X1X1X1X1X1X1X  ! p 1X1XN h l p y z h.x.x.h.m.Z.l v.*XA.&XB.;.1X1X1X1X1X1X1X1X1X",
"1X1X1X1X1X1X1X1XN u 1X1X1XH l J l z a.x.x.y.V.D.c.w.H.D.G.c.} 1X1X1X1X1X1X1X1X1X",
"1X1X1X1X1X1X1X1Xo M 1X1X1X1XN V  .o.p.g.x.z.k.M.c i.n.N.d.f.+.  1X1X1X1X1X1X1X1X",
"1X1X1X1X1X1X1X1X1Xb 1X1X1X1X, 5 7 9 ] #.g.g.l.^.(./.K.L.L.P.).Q ; 1X1X1X1X1X1X1X",
"1X1X1X1X1X1X1X      1X1X  : 7 7 7 7 e R ~.~._.%X7.XX>X,X#X`.=XD 0 1X1X1X1X1X1X1X",
"1X1X1X1X1X1X1X& 7 5 ; ; 7 7 7 7 w -.E c T.'. X8.;X8.    8.6.>.  1X1X1X1X1X1X1X1X",
"1X1X1X1X1X1X1X1X& - 2 7 w w w e ' F j l !.{.R.  4.X + .   oX:.1X1X1X1X1X1X1X1X1X",
"1X1X1X1X1X1X1X1X1X1X1X; < < < & J l l l e.Y.].3.m t r n v q.8.1X1X1X1X1X1X1X1X1X",
"1X1X1X1X1X1X1X1X1X1X1X1X1X1X1X1XC g h l l I.}.:X8.,.9.X 0..XE.1X1X1X1X1X1X1X1X1X",
"1X1X1X1X1X1X1X1X1X1X1X1X1X1X1X1X1XB p l l z !.OX$X[.-X5.<X|.*.1X1X1X1X1X1X1X1X1X",
"1X1X1X1X1X1X1X1X1X1X1X1X1X1X1X1X1X1XL a l k x j.U.W.@X+XQ.J.1X1X1X1X1X1X1X1X1X1X",
"1X1X1X1X1X1X1X1X1X1X1X1X1X1X1X1X1X1X1X@ p i s l K W $.$.{ 1X1X1X1X1X1X1X1X1X1X1X",
"1X1X1X1X1X1X1X1X1X1X1X1X1X1X1X1X1X1X1X1X  B p l J 8 2.<.1X1X1X1X1X1X1X1X1X1X1X1X",
"1X1X1X1X1X1X1X1X1X1X1X1X1X1X1X1X1X1X1X1X1X1X1X    = 1.< 1X1X1X1X1X1X1X1X1X1X1X1X",
"1X1X1X1X1X1X1X1X1X1X1X1X1X1X1X1X1X1X1X1X1X1X1X1X1X1X>   1X1X1X1X1X1X1X1X1X1X1X1X",
"1X1X1X1X1X1X1X1X1X1X1X1X1X1X1X1X1X1X1X1X1X1X1X1X1X1X1X1X1X1X1X1X1X1X1X1X1X1X1X1X",
"1X1X1X1X1X1X1X1X1X1X1X1X1X1X1X1X1X1X1X1X1X1X1X1X1X1X1X1X1X1X1X1X1X1X1X1X1X1X1X1X",
"1X1X1X1X1X1X1X1X1X1X1X1X1X1X1X1X1X1X1X1X1X1X1X1X1X1X1X1X1X1X1X1X1X1X1X1X1X1X1X1X",
"1X1X1X1X1X1X1X1X1X1X1X1X1X1X1X1X1X1X1X1X1X1X1X1X1X1X1X1X1X1X1X1X1X1X1X1X1X1X1X1X",
"1X1X1X1X1X1X1X1X1X1X1X1X1X1X1X1X1X1X1X1X1X1X1X1X1X1X1X1X1X1X1X1X1X1X1X1X1X1X1X1X",
"1X1X1X1X1X1X1X1X1X1X1X1X1X1X1X1X1X1X1X1X1X1X1X1X1X1X1X1X1X1X1X1X1X1X1X1X1X1X1X1X",
"1X1X1X1X1X1X1X1X1X1X1X1X1X1X1X1X1X1X1X1X1X1X1X1X1X1X1X1X1X1X1X1X1X1X1X1X1X1X1X1X",
"1X1X1X1X1X1X1X1X1X1X1X1X1X1X1X1X1X1X1X1X1X1X1X1X1X1X1X1X1X1X1X1X1X1X1X1X1X1X1X1X",
"1X1X1X1X1X1X1X1X1X1X1X1X1X1X1X1X1X1X1X1X1X1X1X1X1X1X1X1X1X1X1X1X1X1X1X1X1X1X1X1X",
"1X1X1X1X1X1X1X1X1X1X1X1X1X1X1X1X1X1X1X1X1X1X1X1X1X1X1X1X1X1X1X1X1X1X1X1X1X1X1X1X"
};
