/* XPM */
static char *result[] = {
/* columns rows colors chars-per-pixel */
"35 35 83 1 ",
"  c #010101",
". c #020101",
"X c #050201",
"o c #080301",
"O c #090301",
"+ c #0B0501",
"@ c #0E0701",
"# c #100501",
"$ c #150701",
"% c #190801",
"& c #1F0A01",
"* c #1F0D01",
"= c #1E1001",
"- c #250B01",
"; c #290C00",
": c #2A0D00",
"> c #2D0E00",
", c #271301",
"< c #351000",
"1 c #331401",
"2 c #391100",
"3 c #3B1200",
"4 c #3D1200",
"5 c #381D01",
"6 c #401300",
"7 c #421400",
"8 c #451500",
"9 c #491600",
"0 c #4A1600",
"q c #4B1600",
"w c #4D1700",
"e c #4F1700",
"r c #411F01",
"t c #471C01",
"y c #501800",
"u c #511800",
"i c #521900",
"p c #531A00",
"a c #541B00",
"s c #561C00",
"d c #571D00",
"f c #581D00",
"g c #5B2000",
"h c #5E2200",
"j c #5F2300",
"k c #5B2400",
"l c #522B01",
"z c #5A2B01",
"x c #622500",
"c c #632600",
"v c #652800",
"b c #692B00",
"n c #6A2C00",
"m c #613201",
"M c #6D3801",
"N c #703000",
"B c #723200",
"V c #733200",
"C c #743301",
"Z c #763501",
"A c #743701",
"S c #703A01",
"D c #7C3901",
"F c #7D3A01",
"G c #7F4201",
"H c #803D01",
"J c #833F01",
"K c #844001",
"L c #874201",
"P c #874601",
"I c #884301",
"U c #8B4501",
"Y c #8A4801",
"T c #8D4901",
"R c #8E4801",
"E c #8F4801",
"W c #904901",
"Q c #904B01",
"! c #924A01",
"~ c #934B01",
"^ c #934C01",
"/ c #944C01",
"( c #954D01",
/* pixels */
" O;9uuuuuuuuuu2%O;9uuuuuuuuuu2%    ",
"O#>0psfffffdai2%O;9psfffffdai3&oX. ",
";>4wgbVVVVVNxa2%O;9gbVVVVVNxa8<-$X ",
"90wycDRRRRRINd2%O;9cDRRRRRINdeq7-o ",
"upgcCL~UJLERVf2%O;9vH~UJLEWFnjdq<&%",
"usbDLEWFnCLRVf2%O;9vHWFnCL~UJBje832",
"ufVR((EZhnJRVf2%O;9vHEZhnJ(((Hvuuuu",
"ufVR((!KZFURVf2%O;9vH!KZFU(((Hvuuuu",
"ufVR((/!EW~RVf2%O;9vH/!EW~(((Hvuuuu",
"ufVR(((((((RVf2%O;9vH((((((((Hve832",
"ufVR(((((((RVf2%O;9vH((((((((Hvq<&%",
"ufVR((^TPYQRVf2%O;9vH^TPYQ(((Hv9;O ",
"ufVR((TSlmGRVf2%O;9vHTSlmG(((Hv9;O ",
"ufVR((Pl=5MRVf2%O;9vHPl=5M(((Hv9;O ",
"ufVRELAr@,zDbs6:&<qjBAr@,zJU~Hv9;O ",
"ufVRLCk1+*tcgp0638edjk1+*tnFWHv9;O ",
"ufVRHv9;O%2uuuuuuuuuu9;O%2fVRHv9;O ",
"ufVRHv9;O%2uuuuuuuuuu9;O%2fVRHv9;O ",
"ufVRHv9;O%2uuuuuuuuuu9;O%2fVRHv9;O ",
"ufVRLCk1+*tcgp0638edjk1+*tnFWHv9;O ",
"ufVRELAr@,zDbs6:&<qjBAr@,zJU~Hv9;O ",
"ufVR((Pl=5MRVf2%O;9vHPl=5M(((Hv9;O ",
"ufVR((TSlmGRVf2%O;9vHTSlmG(((Hv9;O ",
"ufVR((^TPYQRVf2%O;9vH^TPYQ(((Hv9;O ",
"ufVR(((((((RVf2%O;9vH((((((((Hvq<&%",
"ufVR(((((((RVf2%O;9vH((((((((Hve832",
"ufVR((/!EW~RVf2%O;9vH/!EW~(((Hvuuuu",
"ufVR((!KZFURVf2%O;9vH!KZFU(((Hvuuuu",
"ufVR((EZhnJRVf2%O;9vHEZhnJ(((Hvuuuu",
"usbDLEWFnCLRVf2%O;9vHWFnCL~UJBje832",
"upgcCL~UJLERVf2%O;9vH~UJLEWFnjdq<&%",
"90wycDRRRRRINd2%O;9cDRRRRRINdeq7-o ",
";>4wgbVVVVVNxa2%O;9gbVVVVVNxa8<-$X ",
"O#>0psfffffdai2%O;9psfffffdai3&oX. ",
" O;9uuuuuuuuuu2%O;9uuuuuuuuuu2%    "
};
