/* XPM */
static char *result[] = {
/* columns rows colors chars-per-pixel */
"39 39 228 2 ",
"   c #1F0E02",
".  c #12130C",
"X  c #1B1C0D",
"o  c #1B1B13",
"O  c #2E1203",
"+  c #341409",
"@  c #261A12",
"#  c #321E10",
"$  c #1E220E",
"%  c #1F2010",
"&  c #24240D",
"*  c #2B2C0F",
"=  c #342B0F",
"-  c #31250B",
";  c #2E320F",
":  c #38330E",
">  c #242414",
",  c #252A11",
"<  c #2B2D13",
"1  c #2C2619",
"2  c #2C2B1B",
"3  c #302D12",
"4  c #322F1B",
"5  c #382E12",
"6  c #2E3313",
"7  c #2F311D",
"8  c #333514",
"9  c #3A3515",
"0  c #353B15",
"q  c #3B3B15",
"w  c #343419",
"e  c #3A351B",
"r  c #363C19",
"t  c #3B3D1B",
"y  c #2C2D25",
"u  c #2E2B26",
"i  c #2F3028",
"p  c #3A3423",
"a  c #3A3B22",
"s  c #31322A",
"d  c #39342B",
"f  c #373827",
"g  c #353630",
"h  c #393931",
"j  c #433B14",
"k  c #40341B",
"l  c #4C3C19",
"z  c #473917",
"x  c #533F17",
"c  c #503F1D",
"v  c #45281B",
"b  c #423E20",
"n  c #473926",
"m  c #5B3E22",
"M  c #553A23",
"N  c #453D32",
"B  c #3B4217",
"V  c #36431E",
"C  c #3C431A",
"Z  c #3D491C",
"A  c #354217",
"S  c #3B4323",
"D  c #3E4A23",
"F  c #3C442B",
"G  c #39452A",
"H  c #3B4831",
"J  c #4C4516",
"K  c #42441C",
"L  c #4E451B",
"P  c #444B1C",
"I  c #4B4919",
"U  c #5A4B15",
"Y  c #54451A",
"T  c #554C1C",
"R  c #5B4C1A",
"E  c #554717",
"W  c #5D531B",
"Q  c #624D15",
"!  c #63541A",
"~  c #69521B",
"^  c #6C5B1B",
"/  c #685816",
"(  c #735C1B",
")  c #765A1A",
"_  c #704716",
"`  c #796316",
"'  c #79611D",
"]  c #7E6B1D",
"[  c #74621B",
"{  c #444523",
"}  c #444B22",
"|  c #4A4C24",
" . c #434D2A",
".. c #474429",
"X. c #584729",
"o. c #5D5423",
"O. c #404C33",
"+. c #494633",
"@. c #445139",
"#. c #465336",
"$. c #584234",
"%. c #624923",
"&. c #6A4926",
"*. c #6B5921",
"=. c #675527",
"-. c #705624",
";. c #755921",
":. c #685531",
">. c #725630",
",. c #6D4B2C",
"<. c #7B6424",
"1. c #75632D",
"2. c #7A6624",
"3. c #766431",
"4. c #455544",
"5. c #405A42",
"6. c #4A6151",
"7. c #82661D",
"8. c #856B1D",
"9. c #8A6D1D",
"0. c #856518",
"q. c #936F18",
"w. c #8C741D",
"e. c #847118",
"r. c #93731C",
"t. c #937A1E",
"y. c #9A7A1C",
"u. c #9B771B",
"i. c #A37A1A",
"p. c #885E2F",
"a. c #825C31",
"s. c #885C33",
"d. c #836B22",
"f. c #8B6C24",
"g. c #816B28",
"h. c #84662A",
"j. c #926F25",
"k. c #8B7722",
"l. c #947123",
"z. c #9B7325",
"x. c #927923",
"c. c #9D7C24",
"v. c #94722C",
"b. c #99752B",
"n. c #9B7829",
"m. c #937A29",
"M. c #826D3B",
"N. c #886D3B",
"B. c #97643B",
"V. c #A27B25",
"C. c #A37B2E",
"Z. c #A0772A",
"A. c #A47B30",
"S. c #A67231",
"D. c #B0753B",
"F. c #986B43",
"G. c #886751",
"H. c #AD7648",
"J. c #9F821F",
"K. c #A4861C",
"L. c #A98A1E",
"P. c #BF951D",
"I. c #9C8327",
"U. c #A48521",
"Y. c #AC8325",
"T. c #A68923",
"R. c #AB8B22",
"E. c #A48229",
"W. c #AA8329",
"Q. c #AB8B2A",
"!. c #A28828",
"~. c #B98D24",
"^. c #B2852B",
"/. c #B48C29",
"(. c #B98D2D",
"). c #B48827",
"_. c #AB9227",
"`. c #B69422",
"'. c #BC9924",
"]. c #B6952D",
"[. c #BA9A2C",
"{. c #BE9628",
"}. c #A48033",
"|. c #AB8837",
" X c #B58736",
".X c #BA9038",
"XX c #BEA026",
"oX c #C99C1F",
"OX c #C4A11F",
"+X c #CB9F23",
"@X c #C1932E",
"#X c #C69E2B",
"$X c #CA9E2A",
"%X c #CB962D",
"&X c #C39332",
"*X c #C79A38",
"=X c #C58B3E",
"-X c #C9A22C",
";X c #CAA427",
":X c #D2A42B",
">X c #D1A92C",
",X c #DEAD29",
"<X c #D9B228",
"1X c #CBA434",
"2X c #D4A935",
"3X c #DAAC33",
"4X c #D4A43B",
"5X c #D5AB3B",
"6X c #DAA737",
"7X c #DBB437",
"8X c #E3A82E",
"9X c #E4B52C",
"0X c #E1B729",
"qX c #F4BA2D",
"wX c #E1A837",
"eX c #E2B534",
"rX c #ECB53D",
"tX c #E9B837",
"yX c #F7BD39",
"uX c #F2C433",
"iX c #BF8142",
"pX c #B58258",
"aX c #CC9D47",
"sX c #D7A742",
"dX c #DAB142",
"fX c #C8A341",
"gX c #E5AF43",
"hX c None",
/* pixels */
"hXhXhXhXhXhXhXhXhXhXhXhXhXhXhXhXr K W / R [ 2.hXhXhXhXhXhXhXhXhXhXhXhXhXhXhXhX",
"hXhXhXhXhXhXhXhXhXhXhXhXhXhXH G q T J [ 7.9.d.t.y.hXhXhXhXhXhXhXhXhXhXhXhXhXhX",
"hXhXhXhXhXhXhXhXhXhXhXhX6.4.O.f K Y / ( 8.r.u.V.J.c.hXhXhXhXhXhXhXhXhXhXhXhXhX",
"hXN n $.hXhXhXhXhXhXhX@.5.4.O.F K o.^ ( 9.r.r.u.E.R.R.hXhXhXhXhXhXhXhXhXhXhXhX",
"a h h e U.hXhXhXhXhX#.H @.@.F S r X.^ ] w.u.c.l.U.L.Y.`.hXhXhXhXhXhXhXhXhXhXhX",
"$.s d +..XhXhXhXhXhXS D H @.F H B E ^ w.e.t.x.k.r.K.T.T.[.hXhXhXhXhXhXhXhXhXhX",
"o.x i z v.d.hXhXhXV A D #.@.D a ! ( w.x.9.u.y.9.q.e.t.] k.hXhXhXhXhXhXhXn n.hX",
"hXn n Y %.s > hXhXV S D D @.e q j x R f.K.i.i.r.q.r.) i.:.5 M.hXhXhXhXb -.>.A.",
"hXhXhXhX< s g 2 7 G S #.F < < 8 U ^ U o.X./.Y.V.j.9.( l 1./ - N.hXhXf X.C.:.h.",
"hXhXhXhXhXhXy f r Z  .V & 8 8 K J ! ! 9 = f.W.!.l.j.1.t.T.].'.) hXw f $.$.Q j.",
"hXhXhXhXhXhXhX7 0 D Z 0 6 6 < < 8 J 6 , * : h.A.C.8.] ] w.I._.Q.-.:.X.1 @ X hX",
"hXhXhXhXhXhXhXA Z D 0 8 * , , 9 / ^ & & , < k d.b.8.U R ^ ] t.!.f.3.hXhXhXhXhX",
"hXhXhXhXhXhX} Z  .} C 8 < < v @ # x Q > < < o.0.l.) e -.9.E.8.k.hXhXhXhXhXhXhX",
"hXhXhXhXhXhXD D  .} K w w 4 s d @ @ s.> < w ) C. X4 = N O pXk 8.hXhXhXhXhXhXhX",
"hXhXhXhXhXhXZ } } }  .t w 9 9 z + + m e a e 7.V.~.M d + @   3.n.rXhXhXhXhXhXhX",
"hXhXhXhXhXhXZ } | | | *.7.R & 5 -._ e q | ! ) u.C.^.4 &.O H.~.D.8XhXhXhXhXhXhX",
"hXhXhXhXhXhXZ P { P | K d.l.7.) &.U S G G { 2.l.c.L.~.x ~ Z.V.).:XhXhXhXhXhXhX",
"hXhXhXhXhXhXZ P I P j { o.d.) T k F F  .S =.h.v.|.A.@X4X~.V.V.~.6X7XhXhXhXhXhX",
"hXhXhXhXhXZ Z P P P K ..n ..t 8 o r t t e n ) b.|. XaX4X=X%X%X%XwXyXhXhXhXhXhX",
"hXhXhXhXhXZ Z P q B K t 0 9 * @ 6 6 < 2 8 9 ) f.Z.A.(.*X: V.aXgXgXuXhXhXhXhXhX",
"hXhXhXhXhX} Z C q t 8 8 > . & K t q e 6 a < k ) h.z.x Q : ` Q.sXgXyXhXhXhXhXhX",
"hXhXhXhXhXZ P K A q < $ { { K K a t a t r j 5 j 0.V. X%X:X: ^ /.:XqXhXhXhXhXhX",
"hXhXhXhXhXZ P { B C r P K t t K K { o.;.b.(.C.Z.Z.(.*X6XwX8X* l.{.<XhXhXhXhXhX",
"hXhXhXhXhXB A P K K K K w 9 w a C C =.2.{.*X/.n.v.*XsX5XwX3XyX8.-XqXhXhXhXhXhX",
"hXhXhXhXhXZ Z C P C P Z K 1 u o t t { 1.].&X^.C.b.4XsX3X5X$XqX~.-XuXhXhXhXhXhX",
"hXhXhXhXhXA C A B K B C C 9 2 u y u > 2 N.W.E.n.|.fX4X6X$Xx 8X5X7XuXhXhXhXhXhX",
"hXhXhXhXhXhX0 C B B B C P C e 2 . u u g h o o o X.,.;.m S.<X<XdXeX0XhXhXhXhXhX",
"hXhXhXhXhXhX0 A C A B B K C C Y s.B.n d +.n G...M >.D.D.;X9X<X7X<X0XhXhXhXhXhX",
"hXhXhXhXhXhXr 0 C C C A A B 0 0 w ..h.s.F.F.F.H.H.iX=XXX[.<X>X7X<XhXhXhXhXhXhX",
"hXhXhXhXhXhXhX6 0 C C B B A 0 A 8 0 r 8 K T / ' w.Q.[.'.OX>X-X9X9XhXhXhXhXhXhX",
"hXhXhXhXhXhXhXhX8 B Z B q 8 8 6 8 6 6 6 ; I W 2.I._.P.`.;X;X;X5X0XhXhXhXhXhXhX",
"hXhXhXhXhXhXhXhXhX8 B B B 0 0 8 6 6 6 6 8 q U ` I.I.R.L.XX:X3XdXhXhXhXhXhXhXhX",
"hXhXhXhXhXhXhXhXhXhX0 C q C q 8 8 ; < , , j J ( r.J.R.P.+X2XeXrXhXhXhXhXhXhXhX",
"hXhXhXhXhXhXhXhXhXhXhXA B K K C t q 0 L T Q ` t./.#X'.+X2X1XeXhXhXhXhXhXhXhXhX",
"hXhXhXhXhXhXhXhXhXhXhXr q B A q A I 7.n.x.w.u.P.-X-X+X:X5X>X7XhXhXhXhXhXhXhXhX",
"hXhXhXhXhXhXhXhXhXhXhXhX6 0 t A t C ^ t.x.k.!.].-X+X;X#X1X#XhXhXhXhXhXhXhXhXhX",
"hXhXhXhXhXhXhXhXhXhXhXhXhXhX8 8 6 r q W ^ ^ 8.^.{.{.'.'._.hXhXhXhXhXhXhXhXhXhX",
"hXhXhXhXhXhXhXhXhXhXhXhXhXhXhX, 6 7 6 C I T 8.x.Q.R.K.hXhXhXhXhXhXhXhXhXhXhXhX",
"hXhXhXhXhXhXhXhXhXhXhXhXhXhXhXhXhXhX$ $ , , K / ` hXhXhXhXhXhXhXhXhXhXhXhXhXhX"
};
